{"glyphs":{"0":{"ha":718,"x_min":-41,"x_max":814,"o":"m 370 924 q 551 760 492 924 q 576 608 576 688 q 523 313 570 394 q 602 244 552 245 q 695 315 651 243 q 809 238 814 371 q 722 120 781 164 q 598 73 663 77 q 452 138 532 70 q 179 0 336 0 l 157 0 q 0 100 62 0 q -34 310 -41 191 q 113 766 -34 540 q 370 924 233 924 m 119 355 l 119 331 q 170 190 119 219 l 195 184 q 395 431 316 184 q 414 617 421 532 q 376 727 414 700 q 351 732 362 732 l 343 732 q 180 595 258 732 q 119 355 119 474 z "},"1":{"ha":484,"x_min":-54,"x_max":577,"o":"m -52 129 q -53 148 -52 129 q -41 236 -54 168 q 24 411 -28 305 q 165 703 77 517 q 113 655 127 668 q 81 634 98 643 q 40 623 64 626 q 21 620 24 621 q 16 620 18 620 q -6 639 3 627 q -16 687 -16 652 q -7 727 -16 705 q 26 773 3 749 q 134 850 81 817 q 181 879 156 865 q 230 904 205 893 q 278 922 254 915 q 321 928 301 928 q 361 913 345 928 q 378 863 378 899 q 377 836 378 850 q 368 804 375 821 q 339 728 357 774 q 293 609 322 682 q 216 441 264 536 q 158 265 168 346 q 295 229 225 217 q 439 328 366 240 q 535 344 493 380 q 532 221 577 308 q 319 75 438 96 q 116 112 199 54 q 123 52 132 77 q 98 12 113 26 q 61 -8 83 -3 q 22 -12 39 -12 q -21 11 -3 -12 q -45 63 -39 35 q -52 129 -50 91 z "},"2":{"ha":681,"x_min":-58,"x_max":788,"o":"m 663 358 q 751 349 714 380 q 768 256 788 318 q 704 153 741 193 q 631 87 667 113 q 556 39 596 61 q 513 18 515 18 q 398 -3 437 -3 q 316 6 359 -3 q 234 42 273 16 q 117 119 195 68 q 63 135 83 134 q -9 156 43 137 q -51 211 -45 176 q -40 288 -58 245 q 30 327 -1 321 q 125 352 61 332 q 242 396 190 371 q 333 450 294 421 q 405 525 372 479 q 445 667 438 571 q 387 778 431 762 q 294 772 342 795 q 213 723 247 749 q 163 687 180 697 q 125 670 146 676 q 62 689 104 664 q 61 759 48 739 q 104 812 74 779 q 171 867 134 844 q 262 909 209 890 q 369 926 315 928 q 460 906 422 924 q 519 864 497 888 q 562 803 542 840 q 588 673 581 766 q 559 514 581 570 q 497 412 536 458 q 407 328 458 366 q 229 241 355 290 q 341 172 294 184 q 464 174 389 160 q 582 252 538 203 q 663 358 625 300 z "},"3":{"ha":606,"x_min":-56,"x_max":649,"o":"m 490 258 q 459 346 490 311 q 399 396 429 381 q 329 410 369 410 q 283 408 315 410 q 235 406 252 406 q 200 440 211 406 q 189 491 189 475 q 210 529 189 512 q 273 552 232 545 q 370 577 331 560 q 427 610 410 594 q 454 649 445 627 q 457 723 464 671 q 433 769 450 753 q 391 791 416 784 q 309 784 342 791 q 254 766 275 777 q 210 749 233 755 q 162 743 186 743 q 87 802 88 743 q 103 853 80 833 q 154 883 127 871 q 219 906 180 895 q 298 925 257 918 q 379 932 339 932 q 455 924 419 932 q 517 896 490 916 q 567 845 545 876 q 603 747 589 814 q 595 600 616 656 q 497 503 574 544 q 535 483 520 494 q 569 455 549 473 q 615 391 589 438 q 649 276 642 345 q 615 139 649 192 q 537 56 581 87 q 439 9 493 26 q 328 -8 385 -7 q 227 -1 270 -9 q 109 35 184 8 q 0 135 25 96 q -37 204 -25 174 q -56 264 -50 234 q -7 337 -52 328 q 91 289 39 347 q 167 185 130 214 q 234 147 203 157 q 297 137 265 137 q 378 145 330 136 q 454 179 427 153 q 490 258 482 204 z "},"4":{"ha":631,"x_min":-52,"x_max":701,"o":"m 489 393 l 566 393 q 679 381 663 393 q 701 332 694 369 q 681 262 697 274 q 628 248 664 250 q 516 247 591 247 l 448 247 l 419 138 l 389 30 q 349 -9 369 2 q 309 -21 330 -21 q 255 -5 277 -21 q 235 31 233 10 q 239 56 237 51 l 267 152 l 295 247 l 115 247 q 7 248 41 247 q -39 263 -26 249 q -52 309 -52 277 q -14 441 -52 342 l 23 576 l 60 709 q 108 871 97 843 q 143 918 119 904 q 193 931 168 931 q 243 919 219 931 q 271 871 267 906 l 239 753 l 208 634 l 175 515 l 143 397 l 227 397 l 331 397 l 361 508 l 393 619 l 423 730 l 454 842 q 503 910 474 888 q 551 931 531 931 q 588 916 569 931 q 614 874 608 901 q 588 728 621 840 l 555 616 l 522 505 l 489 393 z "},"5":{"ha":694,"x_min":-67,"x_max":743,"o":"m 740 351 q 708 210 733 263 q 642 116 684 157 q 542 46 601 75 q 413 6 482 18 q 278 -2 344 -5 q 145 33 212 2 q 6 140 69 66 q -53 256 -39 210 q -26 353 -67 302 q 63 352 41 371 q 109 279 85 332 q 191 190 154 210 q 271 161 229 170 q 355 154 313 153 q 437 169 397 156 q 513 208 477 181 q 570 300 549 235 q 554 392 583 357 q 486 440 525 426 q 409 458 447 454 q 349 455 369 458 q 309 449 330 452 q 263 447 288 446 q 210 451 238 447 q 169 500 182 455 q 221 684 176 538 l 278 854 q 295 886 286 873 q 314 907 303 899 q 339 919 326 916 q 371 923 353 923 l 524 923 l 682 923 q 733 892 722 916 q 732 833 743 869 q 692 790 720 798 q 642 783 664 783 l 519 783 l 410 783 l 377 682 l 357 600 q 490 606 423 612 q 584 577 545 597 q 650 533 622 556 q 706 469 678 511 q 740 351 733 427 z "},"6":{"ha":560,"x_min":-33,"x_max":607,"o":"m 135 254 q 158 169 135 194 q 230 136 180 143 q 325 143 287 136 q 393 173 363 150 q 439 240 423 197 q 448 360 454 283 q 414 431 434 413 q 354 455 394 448 q 311 457 334 455 q 263 450 288 458 q 213 425 238 441 q 165 367 189 410 q 135 254 132 309 m -33 234 q -26 353 -33 307 q 5 456 -18 399 q 69 581 29 514 q 157 704 109 647 q 261 815 204 762 q 408 920 317 869 q 468 926 454 934 q 490 912 481 918 q 511 897 498 907 q 524 867 523 886 q 503 818 524 848 q 400 744 439 774 q 333 687 361 713 q 283 635 306 661 q 247 585 261 608 q 326 607 300 604 q 393 603 352 610 q 468 574 439 589 q 523 536 498 559 q 567 480 547 514 q 600 377 587 447 q 590 235 607 290 q 551 141 574 180 q 496 76 528 102 q 422 27 464 50 q 331 -2 381 4 q 195 -2 281 -9 q 100 18 135 -2 q 34 68 65 39 q -12 135 3 98 q -33 234 -26 172 z "},"7":{"ha":557,"x_min":-54,"x_max":673,"o":"m 430 836 q 527 821 497 836 q 556 759 556 806 q 535 702 556 733 q 473 633 515 671 q 408 561 461 621 q 325 467 355 502 q 254 385 294 433 q 166 271 213 337 q 340 356 278 339 q 468 378 403 374 q 599 366 534 382 q 585 226 673 300 q 338 196 436 233 q 111 68 240 159 q 68 -9 92 -1 q 22 -17 44 -17 q -28 10 -11 -10 q -42 74 -45 31 q -45 148 -45 95 q -31 234 -45 201 q 3 308 -17 267 q 62 395 23 349 q 135 477 100 441 q 217 564 170 513 q 285 640 263 615 q 312 682 307 665 l 194 679 q 44 686 87 683 q -21 710 1 689 q -48 743 -43 730 q -54 781 -54 755 q -44 814 -54 802 q -19 834 -34 827 q 15 844 -3 842 q 48 846 33 846 q 70 845 61 846 q 82 844 78 844 l 430 836 z "},"8":{"ha":621,"x_min":-41,"x_max":670,"o":"m 515 277 q 466 366 502 330 q 329 431 430 401 q 190 376 221 399 q 140 328 159 354 q 114 280 122 302 q 113 216 106 258 q 150 159 127 184 q 262 120 172 134 q 361 125 333 120 q 419 145 389 130 q 486 193 450 161 q 515 277 522 224 m 510 728 q 453 788 482 781 q 399 795 423 795 q 330 783 355 795 q 270 751 304 771 q 222 706 235 732 q 208 652 208 680 q 337 553 195 590 q 430 585 402 569 q 487 633 457 600 q 510 728 517 665 m 465 921 q 552 888 522 906 q 598 853 581 870 q 627 815 614 836 q 646 772 640 794 q 660 692 660 728 q 645 626 661 656 q 611 570 630 595 q 566 525 592 546 q 504 487 539 505 q 663 302 643 416 q 646 173 670 235 q 564 68 623 111 q 439 11 506 25 q 259 -3 372 -3 q 120 13 162 -3 q 39 58 77 29 q -17 129 1 87 q -35 235 -35 171 q -9 357 -41 295 q 125 492 43 459 q 74 574 88 532 q 59 659 59 616 q 67 725 59 693 q 93 786 76 757 q 139 839 110 814 q 214 881 168 863 q 295 909 259 899 q 380 926 332 920 q 465 921 427 926 z "},"9":{"ha":635,"x_min":-45,"x_max":742,"o":"m 411 635 q 416 649 411 635 q 421 707 421 663 q 381 780 408 762 q 316 799 355 799 q 268 790 290 799 q 223 762 245 782 q 187 717 202 743 q 149 653 172 691 q 117 572 126 614 q 107 505 107 530 q 171 401 88 394 q 235 413 204 401 q 294 453 265 426 q 371 548 322 480 q 411 635 400 607 m 562 701 q 520 513 548 583 q 465 392 492 444 q 398 271 437 339 q 564 350 480 334 q 700 334 648 366 q 665 194 742 245 q 519 177 574 197 q 331 62 463 157 l 209 -45 q 106 -43 136 -66 q 83 3 76 -20 q 107 51 90 27 q 164 133 149 106 q 262 279 178 159 q 145 248 193 255 q 42 253 75 241 q -13 294 9 265 q -45 407 -36 322 q -30 543 -38 500 q 3 652 -21 587 q 60 765 26 718 q 136 853 94 812 q 233 909 179 894 q 335 924 288 924 q 416 910 378 924 q 478 870 454 895 q 526 809 503 844 q 562 701 549 773 z "},"!":{"ha":650,"x_min":255,"x_max":757,"o":"m 433 94 q 420 54 431 73 q 395 21 410 35 q 361 -2 380 6 q 322 -11 342 -11 q 273 9 292 -11 q 255 58 255 29 q 264 101 255 81 q 290 137 274 121 q 326 163 306 153 q 368 172 347 172 q 416 153 399 172 q 434 105 434 134 q 434 100 434 102 q 433 94 434 98 m 753 814 q 685 686 715 743 q 625 576 654 629 q 566 466 596 522 q 498 338 535 409 q 469 308 488 318 q 433 298 450 298 q 411 304 420 298 q 403 322 403 310 q 406 338 403 330 q 444 426 427 385 q 478 503 462 466 q 509 576 494 541 q 539 648 524 611 q 573 726 555 685 q 611 814 591 766 q 626 836 616 826 q 649 851 636 845 q 676 861 662 858 q 705 864 690 864 q 742 856 726 864 q 757 830 757 848 q 753 814 757 823 z "},"\"":{"ha":578,"x_min":217,"x_max":722,"o":"m 718 928 q 659 831 690 880 q 596 734 628 783 q 534 640 565 686 q 475 549 503 593 q 446 522 463 531 q 413 512 429 512 q 394 517 401 512 q 387 532 387 522 q 388 540 387 536 q 391 549 390 544 q 442 651 416 600 q 491 750 467 702 q 537 844 515 799 q 577 928 559 889 q 592 947 583 939 q 612 960 601 955 q 637 968 624 966 q 663 970 650 970 q 705 963 687 970 q 722 940 722 955 q 722 934 722 937 q 718 928 721 930 m 515 928 q 462 832 489 880 q 407 735 435 783 q 351 640 378 687 q 298 549 323 593 q 273 522 288 531 q 242 512 257 512 q 224 517 231 512 q 217 532 217 522 q 219 540 217 536 q 222 549 220 544 q 264 651 243 600 q 306 750 286 702 q 345 844 326 799 q 379 928 363 889 q 412 960 389 950 q 460 970 434 970 q 501 963 484 970 q 519 940 519 955 q 518 934 519 937 q 515 928 517 930 z "},"#":{"ha":854,"x_min":0,"x_max":854,"o":"m 484 757 q 555 744 555 757 q 456 572 555 736 q 454 565 454 569 l 606 565 q 667 668 611 568 q 722 749 713 748 q 795 757 740 757 q 820 741 817 757 q 718 565 727 587 l 847 565 q 854 552 854 562 q 801 467 831 467 l 670 467 q 580 292 667 465 l 703 292 q 716 279 716 292 q 659 192 687 192 l 528 192 q 443 15 523 186 q 399 0 426 0 l 389 0 q 334 11 334 0 l 334 13 q 415 192 334 16 l 258 192 q 172 9 188 31 q 140 2 153 2 l 98 2 q 64 11 64 2 l 64 13 q 146 192 64 18 l 7 192 q 0 199 5 192 q 43 288 0 231 q 54 292 49 292 l 196 292 q 281 450 200 292 q 288 467 288 464 l 153 467 q 140 480 140 467 l 140 486 q 190 565 165 565 l 334 565 q 445 746 440 741 q 484 757 456 753 m 315 296 l 315 292 l 471 292 q 557 467 472 292 l 404 467 q 315 296 402 467 z "},"$":{"ha":661,"x_min":0,"x_max":665,"o":"m 532 810 q 589 794 589 810 l 589 787 q 568 747 589 781 l 571 747 q 665 677 665 747 l 665 675 q 539 519 665 585 q 521 516 525 516 q 494 545 498 516 q 551 612 494 587 q 580 652 580 632 q 556 663 576 663 q 517 646 517 663 q 407 429 516 646 q 511 352 502 372 q 531 283 531 332 q 416 119 531 199 q 229 67 323 67 l 221 67 q 188 10 194 16 q 166 0 176 2 q 109 17 109 0 l 109 22 q 129 71 109 25 l 127 71 q 33 102 55 81 q 0 159 0 125 l 0 166 q 117 308 0 239 q 199 336 171 336 q 214 308 214 336 q 178 264 214 278 q 102 197 102 235 q 174 157 102 165 q 285 374 229 265 q 197 496 197 423 l 197 503 q 285 646 197 568 q 409 717 353 696 q 469 737 425 724 q 530 810 501 810 l 532 810 m 302 553 q 338 496 302 522 l 342 496 q 424 660 342 500 l 420 660 q 302 553 302 608 m 360 318 q 270 144 353 301 l 281 144 q 409 204 361 144 q 425 253 425 232 q 360 318 425 282 z "},"%":{"ha":819,"x_min":-66,"x_max":890,"o":"m 795 290 q 779 338 795 320 q 731 356 762 356 q 676 336 703 356 q 629 285 650 316 q 596 216 609 254 q 584 142 584 178 q 587 112 584 127 q 598 85 591 97 q 617 66 606 73 q 645 59 629 59 q 703 80 675 59 q 751 133 730 100 q 784 207 772 166 q 795 290 795 248 m 233 581 q 218 644 233 624 q 175 665 203 665 q 115 645 142 665 q 66 595 87 626 q 34 525 46 564 q 22 446 22 486 q 26 415 22 430 q 38 387 31 399 q 57 367 45 375 q 83 359 68 359 q 142 379 115 359 q 190 431 170 399 q 222 503 210 463 q 233 581 233 543 m 117 -158 q 101 -172 111 -168 q 81 -176 92 -176 q 61 -172 71 -176 q 42 -162 50 -168 q 28 -146 33 -155 q 22 -127 22 -138 q 33 -97 22 -112 l 536 632 q 485 608 509 618 q 434 590 460 597 q 380 578 408 583 q 319 570 352 574 q 298 455 319 509 q 243 362 277 401 q 165 299 209 322 q 75 276 121 276 q 12 290 39 276 q -32 328 -14 304 q -58 383 -50 351 q -66 451 -66 415 q -46 558 -66 505 q 11 653 -25 611 q 94 720 46 694 q 197 745 142 745 q 277 717 246 745 q 319 637 309 688 q 403 664 365 648 q 476 697 441 679 q 547 738 511 716 q 623 786 582 760 q 650 803 637 798 q 675 808 664 808 q 709 794 696 808 q 722 759 722 781 q 711 719 722 740 l 234 15 q 312 39 274 28 q 384 59 351 50 q 445 75 418 68 q 491 86 473 82 q 487 128 487 106 q 506 244 487 188 q 559 344 526 300 q 638 413 593 387 q 734 439 683 439 q 796 429 768 439 q 845 400 825 419 q 878 353 866 380 q 890 292 890 326 q 870 171 890 229 q 815 69 850 113 q 734 -1 781 25 q 634 -27 688 -27 q 565 -12 595 -27 q 516 28 535 3 q 332 -41 408 -7 q 208 -100 256 -75 q 117 -158 152 -131 z "},"&":{"ha":724,"x_min":-14,"x_max":842,"o":"m 376 588 l 429 616 q 576 725 532 654 q 553 832 593 781 q 465 867 526 864 q 328 769 363 867 q 342 659 308 705 q 376 588 349 627 m 153 212 q 214 151 180 163 q 296 145 248 138 q 479 232 387 172 l 479 234 q 331 416 334 408 l 326 416 q 182 309 233 363 q 153 212 133 260 m 461 490 q 610 310 531 417 q 728 402 633 328 q 808 383 773 422 q 808 300 842 344 q 694 200 768 245 q 766 95 742 146 q 761 27 783 51 q 709 0 740 3 q 628 36 649 0 l 562 118 q 245 -6 403 -11 q 9 140 65 -6 q 0 262 -14 194 q 120 446 7 355 q 245 526 195 511 q 170 673 184 594 q 312 966 136 840 q 481 1012 404 1012 q 692 889 629 1005 q 732 730 741 817 q 646 591 723 643 q 461 490 559 534 z "},"'":{"ha":455,"x_min":278,"x_max":585,"o":"m 582 928 q 529 832 557 880 q 473 735 502 783 q 417 640 445 687 q 365 549 390 593 q 338 522 355 531 q 306 512 321 512 q 286 518 294 512 q 278 535 278 524 q 279 542 278 538 q 281 549 279 545 q 325 651 303 600 q 367 750 347 702 q 406 844 387 799 q 441 928 425 889 q 454 947 446 939 q 474 960 463 955 q 498 968 485 966 q 524 970 511 970 q 567 962 548 970 q 585 939 585 954 q 585 933 585 937 q 582 928 584 930 z "},"(":{"ha":198,"x_min":-6,"x_max":491,"o":"m 354 1041 q 398 1080 377 1069 q 437 1091 419 1091 q 459 1087 449 1091 q 476 1077 469 1083 q 487 1064 483 1072 q 491 1051 491 1057 q 487 1041 491 1045 q 330 833 399 940 q 213 615 261 727 q 139 387 165 504 q 113 146 113 269 q 114 80 113 109 q 118 26 115 52 q 125 -23 120 1 q 138 -78 130 -48 q 139 -86 139 -81 q 134 -105 139 -96 q 122 -120 130 -113 q 104 -130 114 -126 q 83 -133 94 -133 q 46 -121 64 -133 q 22 -78 28 -109 q 11 -20 16 -52 q 2 44 5 11 q -4 110 -2 77 q -6 174 -6 144 q 16 391 -6 283 q 82 605 38 498 q 195 820 127 711 q 354 1041 262 928 z "},")":{"ha":256,"x_min":-107,"x_max":399,"o":"m 39 -78 q -21 -132 5 -117 q -67 -147 -48 -147 q -97 -136 -87 -147 q -107 -109 -107 -124 q -104 -93 -107 -101 q -94 -78 -101 -85 q 62 127 -7 21 q 179 345 131 233 q 253 574 227 457 q 279 811 279 690 q 255 1041 279 925 q 253 1054 253 1048 q 269 1090 253 1076 q 307 1104 286 1104 q 345 1089 326 1104 q 372 1041 364 1075 q 399 784 399 908 q 376 566 399 672 q 309 354 354 460 q 197 142 264 249 q 39 -78 130 35 z "},"*":{"ha":131,"x_min":-71,"x_max":414,"o":"m 404 521 l 211 481 l 265 343 l 163 296 l 136 451 l -22 296 l -71 365 l 104 490 l -48 537 l 28 632 l 157 557 l 223 734 l 328 734 l 222 549 l 414 615 l 404 521 z "},"+":{"ha":556,"x_min":-63,"x_max":564,"o":"m 397 817 q 431 792 421 817 q 432 779 432 784 l 432 771 q 340 574 432 761 q 334 561 334 568 l 524 561 q 563 533 551 561 l 564 518 l 564 513 q 511 450 564 469 q 463 445 492 445 l 288 445 q 174 225 198 266 q 117 192 151 192 l 104 192 q 68 225 68 202 q 120 338 68 245 q 173 445 120 340 l -2 445 q -57 466 -50 445 q -63 492 -61 474 q -40 544 -63 519 q 21 561 -19 561 l 217 561 q 328 781 220 562 q 397 817 354 817 z "},",":{"ha":500,"x_min":123,"x_max":413,"o":"m 408 158 q 301 1 354 78 q 195 -155 249 -75 q 171 -179 184 -172 q 146 -186 158 -186 q 130 -181 136 -186 q 123 -167 123 -176 q 125 -155 123 -160 q 182 1 155 -75 q 239 158 210 78 q 255 184 244 173 q 280 202 267 195 q 310 212 294 209 q 342 216 326 216 q 392 205 370 216 q 413 176 413 195 q 408 158 413 167 z "},"-":{"ha":369,"x_min":-13,"x_max":375,"o":"m 35 363 l 356 363 q 375 341 370 363 q 358 252 371 252 q 340 248 346 248 l -2 248 q -13 309 -13 248 q -3 349 -13 338 q 35 363 14 363 z "},".":{"ha":496,"x_min":218,"x_max":393,"o":"m 393 94 q 386 54 393 73 q 365 21 378 35 q 334 -2 351 6 q 296 -11 316 -11 q 266 -4 280 -11 q 241 13 252 2 q 224 38 231 24 q 218 69 218 53 q 226 108 218 90 q 248 141 234 127 q 279 164 261 155 q 319 172 298 172 q 373 150 352 172 q 393 94 393 127 z "},"/":{"ha":537,"x_min":-12,"x_max":650,"o":"m 585 949 q 644 924 644 941 q 650 909 648 924 l 650 902 l 101 -33 q 42 -49 83 -49 q 35 -51 42 -51 q -12 -18 -12 -42 l -12 -12 q 172 311 -12 -5 q 530 930 512 901 q 580 949 557 949 l 585 949 z "},":":{"ha":553,"x_min":214,"x_max":551,"o":"m 393 94 q 378 54 389 73 q 352 21 368 35 q 318 -2 337 6 q 279 -11 300 -11 q 232 8 250 -11 q 214 56 214 27 q 224 99 214 78 q 251 136 235 120 q 288 162 267 153 q 332 172 309 172 q 378 156 362 172 q 394 111 394 139 q 394 103 394 107 q 393 94 393 98 m 550 389 q 536 351 547 369 q 509 319 525 332 q 474 297 494 305 q 435 289 455 289 q 387 307 405 289 q 370 353 370 324 q 380 396 370 375 q 407 433 391 417 q 445 459 424 450 q 489 469 467 469 q 535 452 518 469 q 551 406 551 435 q 551 398 551 402 q 550 389 551 393 z "},";":{"ha":482,"x_min":50,"x_max":479,"o":"m 393 158 l 119 -189 l 50 -189 l 223 158 l 393 158 m 478 389 q 466 351 475 369 q 441 319 456 332 q 408 297 427 305 q 369 289 389 289 q 320 308 338 289 q 302 356 302 327 q 311 398 302 378 q 335 434 320 418 q 370 458 351 449 q 412 467 390 467 q 460 449 442 467 q 479 400 479 432 q 479 395 479 397 q 478 389 479 392 z "},"<":{"ha":379,"x_min":-96,"x_max":648,"o":"m 617 785 l 624 785 q 648 755 644 785 l 648 737 q 479 608 648 652 q 107 478 140 487 l 107 476 l 533 238 q 555 186 555 212 l 555 182 q 509 100 555 127 q 486 96 501 96 l 484 96 q 410 126 455 96 q -65 402 191 250 q -96 463 -96 432 l -96 471 q 8 564 -96 540 q 617 785 595 781 z "},"=":{"ha":481,"x_min":-140,"x_max":612,"o":"m 53 711 l 566 711 q 612 678 612 707 q 556 614 612 647 l 543 612 l 11 612 q -26 650 -26 612 q 1 690 -26 665 q 53 711 37 711 m -63 469 l 471 469 q 508 437 508 462 q 433 375 508 391 l -111 375 q -140 414 -140 383 q -63 469 -140 459 z "},">":{"ha":489,"x_min":-125,"x_max":593,"o":"m 33 832 q 112 797 62 832 q 564 534 307 689 q 593 476 593 504 q 524 391 593 410 q -98 165 -71 172 l -100 165 q -125 195 -119 165 q -28 315 -125 283 l 397 463 q -1 684 389 472 q -36 747 -36 709 q 33 832 -24 832 z "},"?":{"ha":333,"x_min":-136,"x_max":434,"o":"m 45 178 q 28 138 40 157 q -1 105 16 119 q -37 82 -17 90 q -76 73 -56 73 q -120 90 -104 73 q -136 132 -136 106 q -124 178 -136 155 q -95 218 -113 200 q -55 246 -77 235 q -9 256 -32 256 q 34 241 19 256 q 48 201 48 225 q 45 178 48 189 m 195 434 q 143 393 168 414 q 98 349 118 371 q 63 305 77 326 q 40 264 48 283 q 20 248 35 253 q -7 242 5 242 q -31 249 -21 242 q -41 267 -41 255 q -40 275 -41 269 q 18 376 -26 326 q 123 474 62 427 q 180 512 150 491 q 236 555 210 533 q 281 599 262 578 q 304 639 300 621 q 308 663 308 654 q 296 694 308 684 q 265 703 285 703 q 219 695 245 703 q 164 670 192 686 q 109 632 136 654 q 62 583 82 610 q 25 564 47 564 q 7 566 16 564 q -8 573 -1 568 q -19 584 -15 577 q -24 597 -24 590 q -19 616 -24 607 q -5 636 -14 625 q 69 708 28 677 q 153 762 110 740 q 237 794 195 783 q 316 806 279 806 q 363 800 342 806 q 401 781 385 793 q 425 750 416 769 q 434 706 434 732 q 421 633 434 665 q 379 570 408 601 q 304 507 350 540 q 195 434 259 475 z "},"@":{"ha":890,"x_min":0,"x_max":896,"o":"m 579 817 q 878 667 816 811 q 896 573 896 627 q 827 351 896 475 q 618 191 753 241 q 543 172 585 172 l 541 172 q 506 199 506 172 l 506 209 q 532 297 506 213 q 329 213 448 213 q 233 270 272 213 q 218 333 218 300 q 301 522 218 425 q 583 652 446 652 q 705 604 705 644 l 705 595 q 606 288 699 561 l 608 288 q 709 340 655 293 q 802 555 802 440 q 685 715 802 679 q 575 730 634 730 l 551 730 q 327 656 452 730 q 120 378 180 559 q 109 309 109 345 l 109 299 q 159 163 109 205 q 331 87 229 87 l 378 87 q 608 157 498 87 l 614 157 q 642 100 642 104 q 433 12 582 42 q 319 0 406 4 q 26 144 110 0 q 0 254 0 194 q 130 597 0 438 q 283 726 235 707 q 579 817 430 817 m 329 368 q 392 315 329 315 l 396 315 q 601 549 522 315 l 601 555 q 547 562 566 562 l 530 562 q 366 467 448 562 q 329 368 332 413 z "},"A":{"ha":915,"x_min":-69,"x_max":1016,"o":"m 743 774 q 741 773 741 774 q 710 820 720 812 q 679 842 701 828 q 614 824 647 842 q 547 775 581 806 q 480 704 513 744 q 416 618 447 663 q 355 527 385 574 q 300 441 326 480 q 250 359 275 401 l 406 364 l 563 368 q 609 484 594 446 q 639 555 624 521 q 682 654 654 589 q 723 746 709 719 q 743 774 732 763 m 846 778 q 851 770 849 774 q 857 743 857 756 q 837 657 857 716 q 803 556 817 598 q 770 464 789 514 q 731 362 751 414 q 680 205 712 311 q 688 166 673 178 q 716 171 706 166 q 739 186 726 175 q 776 223 751 197 q 821 266 800 248 q 862 307 841 283 q 918 359 883 332 q 1004 262 1016 351 q 922 161 960 202 q 836 77 885 119 q 744 10 787 35 q 646 -15 701 -15 q 580 -6 604 -15 q 538 19 557 3 q 513 56 519 35 q 507 100 507 77 q 508 118 507 109 q 510 145 509 127 q 518 197 511 162 q 526 233 526 231 l 526 235 l 360 227 l 194 219 q 131 83 152 130 q 105 43 119 62 q 78 8 92 23 q 51 -17 64 -7 q 18 -26 37 -26 q -22 -20 -9 -26 q -43 -4 -35 -14 q -56 38 -50 5 q -52 73 -56 56 q 14 206 -47 90 q -63 296 -69 198 q -5 363 -47 359 q 98 368 37 368 q 179 513 140 450 q 263 643 218 577 q 358 770 308 708 q 459 879 409 831 q 563 956 509 927 q 677 985 617 985 q 783 950 734 985 q 876 844 831 916 q 880 828 880 835 q 876 810 880 819 q 863 795 871 802 q 846 778 855 788 z "},"B":{"ha":884,"x_min":-27,"x_max":918,"o":"m 523 836 q 526 823 526 830 q 532 803 525 813 q 481 566 526 787 q 642 619 603 590 q 704 670 680 648 q 736 733 728 692 q 728 807 745 774 q 693 845 711 840 q 648 847 675 851 q 523 836 585 847 m 437 418 q 358 116 401 291 q 505 123 416 109 q 644 161 593 137 q 716 216 694 184 q 732 302 739 247 q 688 364 715 343 q 621 395 661 385 q 437 418 581 406 m 369 784 q 338 758 347 768 q 302 726 329 747 q 217 656 264 664 q 156 669 175 656 q 130 728 136 683 q 149 790 130 757 q 206 855 169 823 q 335 929 243 888 q 495 981 426 971 q 633 991 564 991 q 749 977 697 991 q 830 935 800 962 q 875 880 859 907 q 895 816 891 852 q 890 734 898 780 q 862 644 882 689 q 807 566 842 598 q 715 500 773 534 q 811 454 779 477 q 868 403 842 431 q 911 310 893 375 q 902 204 918 250 q 844 112 886 159 q 725 30 802 64 q 578 -19 649 -4 q 409 -37 508 -33 q 219 -20 310 -41 q 76 67 121 19 q 8 161 31 115 q -21 255 -15 208 q 3 340 -27 302 q 86 351 62 361 q 121 311 110 342 q 145 250 132 280 q 202 182 159 220 q 259 361 235 264 q 311 573 283 458 q 363 766 339 687 q 369 784 366 776 z "},"C":{"ha":692,"x_min":-56,"x_max":790,"o":"m 705 836 q 701 766 706 789 q 680 722 696 744 q 644 686 663 700 q 597 673 624 673 q 582 674 591 673 q 546 690 572 675 q 531 753 521 706 q 539 808 538 774 q 498 851 534 840 q 439 839 469 851 q 360 778 410 827 q 272 662 311 730 q 210 547 234 595 q 167 449 186 499 q 141 357 149 399 q 146 261 133 315 q 214 185 174 212 q 335 165 254 159 q 433 194 404 179 q 497 235 463 210 q 561 295 531 260 q 613 360 591 330 q 653 412 635 390 q 752 439 694 468 q 789 375 790 414 q 755 287 788 336 q 663 159 701 202 q 587 83 626 115 q 505 28 547 52 q 404 -9 463 4 q 278 -22 345 -22 q 119 4 168 -22 q 39 60 71 29 q -13 124 7 90 q -46 217 -33 159 q -44 365 -56 309 q -13 483 -33 420 q 39 608 7 545 q 110 730 71 670 q 196 845 150 790 q 294 938 242 900 q 403 991 347 976 q 517 1006 459 1006 q 571 999 545 1006 q 623 982 597 993 q 674 934 649 971 q 705 836 699 897 z "},"D":{"ha":951,"x_min":-83,"x_max":998,"o":"m 482 844 q 485 804 488 825 q 454 627 481 783 l 426 471 l 397 315 l 370 159 q 512 147 450 146 q 634 169 574 149 q 749 242 693 190 q 816 353 805 294 q 823 475 827 412 q 802 584 819 538 q 759 681 785 629 q 695 775 732 732 q 589 840 659 819 q 494 848 532 860 q 482 844 488 846 m 315 755 q 298 740 305 747 q 268 704 282 724 q 241 661 254 684 q 180 621 228 637 q 95 672 122 634 q 89 752 81 711 q 131 834 96 793 q 203 902 165 874 q 300 959 241 929 q 423 1004 359 988 q 562 1006 487 1019 q 726 960 669 999 q 830 875 784 920 q 910 766 876 830 q 968 614 944 701 q 995 439 991 526 q 971 270 998 351 q 891 128 945 189 q 741 24 836 68 q 518 -33 646 -20 q 191 -12 390 -46 q 10 91 97 5 q -80 249 -77 176 q -37 363 -83 322 q 55 356 24 386 q 106 282 86 326 q 191 208 126 239 l 225 359 l 260 510 l 294 661 l 315 755 z "},"E":{"ha":865,"x_min":-25,"x_max":948,"o":"m 578 573 q 622 532 616 559 q 608 449 622 467 q 568 428 595 431 q 500 429 542 425 q 395 427 458 433 q 308 417 349 427 q 231 387 267 408 q 177 331 196 366 q 159 257 159 296 q 169 211 159 227 q 201 170 180 195 q 261 126 222 144 q 359 106 300 108 q 486 118 433 108 q 571 141 538 129 q 662 195 604 154 q 749 271 720 235 q 805 333 778 306 q 873 368 831 361 q 932 340 916 361 q 948 294 948 319 q 909 203 941 242 q 831 122 878 164 q 712 41 785 81 q 581 -19 640 1 q 460 -46 522 -39 q 313 -53 399 -53 q 183 -25 245 -46 q 73 36 121 -3 q 0 133 26 75 q -25 262 -25 190 q 3 383 -25 325 q 84 479 32 441 q 176 532 137 518 q 269 570 215 547 q 177 647 217 604 q 123 743 137 689 q 133 815 123 782 q 170 890 142 849 q 233 957 197 932 q 310 999 268 981 q 391 1022 352 1017 q 484 1026 430 1026 q 586 1015 540 1026 q 682 972 633 1003 q 760 907 732 941 q 814 822 789 873 q 814 755 828 779 q 780 725 800 732 q 732 718 760 717 q 684 743 704 719 q 647 784 665 768 q 602 822 629 800 q 498 857 574 843 q 418 853 448 857 q 364 837 389 850 q 318 799 340 823 q 323 726 296 774 q 399 660 363 679 q 462 622 435 641 q 513 595 490 604 q 578 573 536 587 z "},"F":{"ha":718,"x_min":-28,"x_max":793,"o":"m 788 363 q 783 295 793 317 q 749 263 772 273 q 716 252 727 254 q 629 256 705 250 q 482 268 517 269 q 377 267 446 267 q 299 262 342 267 q 282 199 289 232 q 262 86 276 166 q 203 -28 249 5 q 97 -17 117 -35 q 76 22 76 1 q 92 167 76 75 l 109 264 q -9 272 10 251 q -15 346 -28 293 q 38 416 -6 407 q 140 431 81 426 l 182 572 l 217 677 q 291 819 258 773 q 372 903 323 865 q 471 963 420 941 q 587 985 522 985 q 679 982 654 985 q 719 975 705 979 q 757 946 746 968 q 768 903 768 925 q 763 869 768 886 q 747 839 757 852 q 725 809 737 825 q 699 793 712 793 q 646 802 665 803 q 604 802 627 802 q 553 801 581 802 q 490 776 525 800 q 428 718 454 752 q 367 566 402 684 l 338 434 q 542 433 452 444 q 690 416 631 423 q 788 363 749 409 z "},"G":{"ha":764,"x_min":-40,"x_max":814,"o":"m 750 12 q 713 -46 726 -33 q 661 -65 701 -58 q 610 -40 625 -58 q 593 13 594 -22 q 610 129 593 47 q 487 49 528 72 q 408 10 446 26 q 315 -24 370 -7 q 178 -34 260 -41 q 83 -6 131 -27 q 13 43 35 15 q -24 111 -9 72 q -38 186 -38 151 q -37 203 -38 199 q -22 351 -40 289 q 25 484 -4 412 q 93 616 54 555 q 176 735 131 677 q 269 838 221 793 q 376 921 316 883 q 478 972 437 960 q 572 985 519 985 q 699 967 648 992 q 779 865 749 942 q 790 808 790 835 q 774 739 783 764 q 720 695 765 713 q 649 701 677 690 q 618 755 621 713 q 605 796 610 781 q 568 824 599 810 q 480 794 514 817 q 406 737 447 771 q 317 633 366 703 q 231 489 269 563 q 177 360 194 416 q 159 248 159 305 q 166 209 159 229 q 184 173 172 189 q 217 146 196 157 q 288 136 239 136 q 376 167 340 149 q 456 214 412 184 q 539 263 500 243 q 640 343 578 283 q 749 397 698 400 q 792 383 772 397 q 814 330 812 369 q 789 171 808 250 q 761 54 770 92 q 750 12 751 15 z "},"H":{"ha":1004,"x_min":-59,"x_max":1075,"o":"m 997 243 q 886 247 922 240 q 861 119 873 186 q 842 28 849 53 q 826 -12 838 7 q 799 -42 815 -31 q 766 -54 783 -52 q 715 -56 749 -56 q 673 -39 687 -49 q 652 -8 659 -28 q 676 130 652 16 l 699 254 q 547 259 612 258 q 453 259 482 260 q 415 152 435 194 q 363 62 396 111 q 288 -10 330 14 q 172 -35 246 -34 q 108 -27 142 -35 q 46 -1 74 -19 q -1 46 18 17 q -34 117 -19 76 q -58 234 -49 158 q -33 333 -59 309 q 16 358 -6 357 q 62 350 38 359 q 96 276 84 328 q 120 194 108 225 q 166 160 132 163 q 220 169 201 157 q 252 205 239 180 q 256 272 264 231 q 225 306 235 279 q 233 370 216 332 q 278 417 250 408 q 324 427 307 427 q 345 550 335 514 q 364 645 355 586 q 393 792 374 704 q 421 909 413 880 q 431 945 429 938 q 452 976 437 966 q 492 985 467 985 q 552 965 538 979 q 580 899 566 951 l 579 875 q 572 827 578 857 q 552 710 567 797 q 531 587 537 624 q 519 526 525 550 q 496 420 513 503 q 665 413 632 414 q 743 411 699 412 q 745 411 744 411 q 746 410 745 410 q 785 602 765 509 q 826 778 805 695 q 865 909 847 861 q 925 958 882 958 q 995 953 983 964 q 1013 923 1006 942 q 1000 785 1013 857 q 975 645 987 713 q 956 546 964 576 q 930 404 949 517 q 1011 396 985 399 q 1057 369 1038 392 q 1068 303 1075 345 q 997 243 1062 260 z "},"I":{"ha":779,"x_min":-51,"x_max":906,"o":"m 426 26 q 295 -2 361 3 q 199 -7 230 -7 q 133 8 165 0 q 61 40 100 16 q -14 134 23 64 q -46 229 -41 186 q -36 342 -51 273 q 110 353 52 437 q 116 255 111 289 q 140 198 121 220 q 186 191 159 175 q 255 385 212 245 l 297 525 l 340 665 q 398 826 382 804 q 336 811 363 819 q 270 798 308 803 q 220 806 231 792 q 210 846 210 820 q 225 887 210 855 q 270 932 241 920 q 343 957 298 945 q 467 978 388 968 q 663 992 546 987 q 757 982 730 992 q 784 949 784 972 q 777 925 784 937 q 759 884 770 913 q 732 848 748 854 q 680 842 717 842 q 645 842 670 842 q 593 840 620 842 l 543 680 l 493 520 l 443 359 q 393 201 399 227 q 499 219 438 204 q 615 259 559 235 q 726 314 671 283 q 845 357 782 345 q 898 289 906 342 q 841 199 890 235 q 751 144 792 163 q 591 71 709 125 q 426 26 522 43 z "},"J":{"ha":661,"x_min":-58,"x_max":736,"o":"m 713 404 q 693 187 726 271 q 605 50 661 103 q 488 -26 549 -3 q 349 -50 427 -50 q 218 -47 270 -56 q 108 -2 165 -39 q 14 84 51 34 q -44 210 -24 134 q -48 312 -58 280 q -9 368 -38 344 q 55 378 20 392 q 111 316 89 365 q 171 183 138 223 q 317 136 203 143 q 472 175 409 123 q 533 324 535 228 q 496 524 532 420 q 389 796 460 629 q 266 790 317 790 q 227 795 254 790 q 186 809 200 801 q 168 831 172 817 q 178 908 164 844 q 202 951 187 939 q 256 970 217 963 q 269 969 262 970 q 281 969 275 969 q 382 972 332 969 q 483 978 433 975 q 620 986 532 981 q 680 978 645 986 q 734 917 715 970 q 714 840 736 857 q 659 814 692 824 q 613 803 627 805 q 585 798 600 802 q 713 404 653 629 z "},"K":{"ha":979,"x_min":-50,"x_max":1093,"o":"m -50 258 q -25 345 -43 319 q 19 377 -7 371 q 83 364 45 382 q 117 296 116 332 q 121 214 117 261 q 162 159 125 167 q 212 207 196 171 q 245 299 229 243 q 278 414 262 355 q 309 531 294 474 q 335 652 323 588 q 355 772 347 717 q 374 872 363 828 q 393 944 385 916 q 404 980 402 972 q 432 1010 410 1001 q 472 1020 454 1020 q 525 984 511 1000 q 538 926 538 968 q 538 911 538 919 q 537 896 538 904 q 531 841 535 876 q 526 761 528 806 q 526 675 524 715 q 508 577 529 635 q 627 693 572 631 q 728 799 682 755 q 798 872 774 844 q 841 918 821 901 q 878 941 862 935 q 919 953 895 948 q 958 950 943 958 q 979 928 973 943 q 985 909 985 913 q 979 866 985 884 q 948 808 973 849 q 869 710 915 762 q 698 529 797 625 q 581 421 592 433 q 624 347 610 380 q 656 280 639 315 q 702 207 673 246 q 781 199 731 168 q 911 328 831 231 q 1040 365 987 401 q 1068 278 1093 328 q 1005 186 1043 229 q 866 45 967 143 q 768 -16 802 -5 q 675 -12 733 -28 q 540 137 599 35 q 437 334 481 239 q 382 201 408 260 q 328 90 356 142 q 253 8 299 39 q 155 -22 207 -22 q 12 46 54 -21 q -38 159 -31 113 q -50 258 -45 205 z "},"L":{"ha":854,"x_min":-44,"x_max":974,"o":"m 477 930 q 529 1006 503 989 q 594 1014 555 1023 q 648 995 633 1006 q 669 935 663 983 q 660 881 669 918 q 600 675 650 844 l 549 506 l 498 336 l 448 168 q 579 163 524 151 q 667 196 635 175 q 733 248 699 216 q 833 362 766 280 q 910 403 867 410 q 966 335 953 397 q 904 179 974 260 q 779 61 835 98 q 667 4 723 24 q 535 -26 612 -16 q 399 -38 458 -36 q 228 -20 340 -41 q 98 28 144 0 q 25 87 51 57 q -22 159 0 118 q -44 274 -44 201 q 17 363 -20 350 q 80 366 55 377 q 123 319 104 355 q 164 243 146 262 q 237 209 183 224 l 298 389 l 357 570 l 418 750 l 477 930 z "},"M":{"ha":1206,"x_min":-65,"x_max":1325,"o":"m 968 55 q 946 183 947 106 q 945 330 945 260 q 943 465 945 400 q 939 557 941 529 q 876 433 906 502 q 763 190 845 365 q 722 133 741 155 q 689 105 703 111 q 635 99 676 99 q 573 177 589 113 q 542 315 557 241 q 518 472 526 389 q 515 533 511 494 q 440 334 505 500 q 349 119 375 168 q 287 36 322 71 q 218 -12 251 2 q 169 -25 190 -23 q 132 -26 148 -26 q -9 54 47 -24 q -60 265 -65 132 q 18 376 -49 362 q 111 321 85 390 l 113 260 q 131 189 115 199 q 161 182 147 178 q 208 247 175 187 q 280 421 240 307 q 351 632 321 536 q 396 789 380 728 q 421 890 412 851 q 435 939 431 929 q 462 969 445 960 q 530 984 479 979 q 591 978 581 989 q 614 932 601 966 q 656 736 642 827 q 698 467 671 644 q 796 675 753 576 q 868 847 838 774 q 926 959 897 920 q 987 1005 954 998 q 1044 991 1015 1008 q 1100 945 1084 965 q 1116 892 1116 924 q 1122 809 1120 859 q 1123 666 1123 760 q 1123 493 1122 573 q 1127 366 1124 414 q 1132 276 1130 319 l 1211 332 q 1305 288 1286 352 q 1274 158 1325 223 q 1179 47 1223 93 q 1069 -9 1134 1 q 1000 5 1024 -9 q 968 55 975 19 z "},"N":{"ha":1000,"x_min":-72,"x_max":1109,"o":"m 581 913 q 651 729 627 789 q 713 568 675 669 q 827 290 751 466 q 866 550 851 458 q 892 721 881 642 q 910 854 903 800 q 950 978 918 908 q 1022 1006 999 1006 q 1084 991 1063 1007 q 1109 918 1105 975 q 1105 842 1109 886 q 1067 541 1101 797 l 1032 283 q 989 68 1018 178 q 961 -4 977 20 q 920 -38 946 -28 q 863 -50 893 -48 q 802 -46 833 -52 q 750 -15 771 -40 q 712 56 728 9 q 595 343 642 220 q 481 643 548 466 q 453 477 467 548 q 404 271 439 407 q 317 69 355 129 q 214 -18 279 9 q 61 -15 149 -45 q -27 77 -1 29 q -63 174 -54 125 q -68 300 -72 224 q 22 391 -48 398 q 102 271 92 385 q 136 215 117 223 q 184 240 156 206 q 222 324 206 277 q 247 422 238 370 q 271 550 256 474 q 296 696 286 625 q 313 825 307 767 q 328 917 319 883 q 339 959 336 951 q 381 989 359 979 q 439 1002 404 998 q 498 1003 477 1008 q 550 985 518 998 q 581 913 561 949 z "},"O":{"ha":778,"x_min":-46,"x_max":837,"o":"m 609 690 q 599 710 609 690 q 568 748 588 731 q 462 805 531 782 q 393 810 430 812 q 317 777 356 808 q 241 700 278 745 q 182 596 203 655 q 152 488 160 538 q 144 365 144 437 q 176 273 158 298 q 222 227 195 249 q 288 193 250 204 q 397 181 325 181 q 513 209 467 188 q 606 287 559 230 q 654 435 653 343 q 639 609 656 527 q 609 690 631 648 m 770 732 q 813 635 788 692 q 836 454 836 529 q 812 269 837 379 q 723 116 774 170 q 606 34 671 62 q 472 -8 540 5 q 327 -19 404 -22 q 181 11 250 -16 q 73 76 113 38 q 0 177 33 115 q -39 332 -33 240 q -27 515 -46 431 q 32 677 -7 600 q 114 814 72 755 q 210 914 155 873 q 311 974 264 955 q 444 992 357 992 q 553 968 510 985 q 628 927 596 951 q 694 864 659 903 q 770 732 722 833 z "},"P":{"ha":995,"x_min":-54,"x_max":1079,"o":"m 646 833 q 644 828 645 831 q 556 602 606 755 l 490 433 q 578 390 527 406 q 682 371 629 375 q 790 371 736 367 q 880 417 845 375 q 902 586 916 458 q 858 705 875 674 q 813 763 842 735 q 747 808 784 791 q 646 833 716 822 m 427 785 q 401 774 421 792 q 337 719 358 734 q 270 715 316 703 q 221 773 223 749 q 225 818 218 797 q 270 879 232 838 q 364 950 309 920 q 485 989 420 980 q 623 998 551 998 q 801 962 739 991 q 912 887 864 932 q 999 770 960 842 q 1059 580 1038 699 q 1045 353 1079 441 q 934 230 1010 265 q 790 189 857 194 q 631 197 722 184 q 521 222 553 211 q 430 259 490 233 q 373 109 390 152 q 322 10 355 66 q 221 -74 289 -47 q 52 -45 153 -101 q -26 76 -14 28 q -47 170 -39 123 q -39 273 -54 217 q 45 323 -23 328 q 107 258 94 318 q 141 164 121 199 q 199 191 162 130 q 281 376 249 294 q 377 621 313 458 l 427 785 z "},"Q":{"ha":1002,"x_min":-27,"x_max":1151,"o":"m 613 845 q 527 831 566 841 q 428 787 484 821 q 321 704 372 752 q 231 596 270 655 q 170 470 193 538 q 147 330 147 402 q 176 220 147 269 q 256 163 205 172 q 351 164 307 155 q 454 209 395 173 l 489 243 l 470 297 q 499 367 472 348 q 538 385 526 385 q 606 345 579 393 q 649 461 640 390 q 656 599 658 532 q 631 780 655 665 q 613 845 616 822 m 820 683 q 825 477 834 559 q 793 320 815 385 q 739 216 771 255 q 757 188 751 195 q 783 170 763 180 q 825 165 802 160 q 903 203 848 170 q 978 307 957 282 q 1035 347 998 332 q 1119 306 1086 347 q 1120 209 1151 264 q 1014 66 1085 135 q 876 -2 945 12 q 756 -5 806 -16 q 670 34 705 6 q 598 104 635 62 q 520 41 570 75 q 368 -14 470 8 q 173 1 214 -16 q 82 63 132 18 q 2 174 32 108 q -27 332 -27 240 q 2 518 -27 431 q 78 684 32 606 q 187 821 125 762 q 310 917 249 880 q 431 975 372 955 q 577 1002 490 995 q 693 988 643 1002 q 784 947 743 975 q 861 873 826 919 q 905 750 895 827 q 905 744 905 747 q 905 738 905 741 q 886 694 905 711 q 820 683 867 677 z "},"R":{"ha":1072,"x_min":-50,"x_max":1184,"o":"m 625 854 q 627 850 627 852 q 631 829 631 842 q 624 793 631 816 q 604 740 616 770 q 551 606 592 710 q 492 465 510 502 q 501 464 496 464 q 510 464 505 464 q 695 474 645 454 q 785 534 746 494 q 844 608 825 573 q 870 694 863 642 q 856 756 868 727 q 819 807 844 785 q 754 842 793 829 q 659 854 714 854 q 625 854 642 854 m 456 800 q 422 771 437 787 q 372 722 400 747 q 328 693 345 697 q 287 687 311 688 q 227 715 254 694 q 199 767 199 736 q 244 841 215 807 q 320 910 274 875 q 419 969 366 945 q 536 1007 473 993 q 669 1022 599 1022 q 821 995 752 1018 q 923 941 890 971 q 988 854 956 910 q 1021 727 1021 798 q 1010 616 1021 666 q 975 526 1000 566 q 915 444 951 486 q 836 378 880 402 q 744 342 791 353 q 632 324 696 332 q 657 271 644 292 q 690 224 670 250 q 731 180 710 199 q 790 154 752 162 q 861 154 828 146 q 961 222 895 162 q 1084 353 1028 312 q 1154 333 1124 359 q 1177 263 1184 307 q 1151 207 1164 227 q 1093 130 1137 186 q 953 20 1023 50 q 803 -10 883 -10 q 669 11 720 -10 q 576 86 617 32 q 513 190 536 140 q 456 327 490 240 q 406 215 435 276 q 357 112 377 155 q 294 23 338 70 q 143 -20 250 -24 q -20 90 36 -17 q -48 209 -47 171 q -33 297 -50 247 q 39 350 -16 347 q 118 283 94 354 q 150 157 115 161 q 222 235 184 153 l 345 540 q 400 670 370 600 q 454 795 430 741 q 456 800 454 798 z "},"S":{"ha":684,"x_min":-45,"x_max":730,"o":"m 37 364 q 122 292 111 357 q 116 238 109 261 q 136 193 123 214 q 176 159 149 172 q 242 140 203 146 q 327 134 281 134 q 426 145 387 134 q 489 174 465 157 q 529 208 514 191 q 551 258 545 226 q 528 309 551 283 q 360 418 504 336 l 210 492 q 117 578 139 537 q 96 665 96 620 q 122 752 96 706 q 183 833 149 798 q 261 897 217 867 q 354 947 306 926 q 438 977 403 968 q 491 985 474 985 q 621 965 578 984 q 682 917 663 945 q 701 853 701 888 q 682 780 694 802 q 637 724 669 758 q 574 699 610 706 q 524 716 538 699 q 511 768 511 732 q 498 818 513 805 q 450 821 483 830 q 381 788 416 812 q 322 745 347 764 q 280 703 298 725 q 275 663 262 681 q 307 633 288 646 q 342 606 326 620 q 443 542 359 592 l 520 499 q 649 418 618 443 q 704 361 680 393 q 730 256 727 330 q 699 136 730 188 q 615 43 667 84 q 470 -22 564 3 q 302 -41 377 -47 q 161 -27 219 -41 q 69 8 103 -14 q 8 61 35 31 q -29 123 -19 90 q -42 192 -39 157 q -44 258 -45 227 q -26 321 -43 289 q 37 364 -9 353 z "},"T":{"ha":1049,"x_min":-92,"x_max":1120,"o":"m 690 779 q 651 696 665 720 q 594 587 630 663 q 536 459 559 511 q 488 354 513 406 q 442 254 463 302 q 402 164 420 205 q 367 91 385 123 q 339 40 349 58 q 256 -27 295 -12 q 148 -42 218 -43 q 18 3 77 -41 q -73 177 -41 48 q -69 332 -92 272 q 26 382 -45 391 q 74 314 67 360 q 95 223 81 269 q 134 168 109 177 q 181 165 159 158 q 215 193 203 172 q 258 277 227 213 q 330 427 288 342 q 448 659 372 513 q 526 806 498 755 q 517 807 522 806 q 352 827 433 816 q 135 863 271 838 q 108 910 115 884 q 105 968 101 936 q 140 1013 109 1000 q 280 1011 171 1025 q 489 985 389 997 q 734 958 589 973 q 874 917 826 937 q 977 854 923 897 q 1071 736 1031 812 q 1114 597 1107 659 q 1113 472 1120 536 q 1068 348 1106 409 q 963 258 1031 286 q 853 260 888 238 q 820 326 817 283 q 856 387 822 368 q 918 435 890 405 q 953 543 946 466 q 889 695 950 630 q 690 779 830 757 z "},"U":{"ha":1036,"x_min":-43,"x_max":1118,"o":"m 160 926 q 196 983 171 961 q 256 1006 222 1006 q 322 971 309 998 q 334 922 335 945 q 323 859 334 899 q 220 579 269 712 q 163 351 170 446 q 166 228 156 256 q 193 183 176 200 q 230 159 210 166 q 271 151 250 151 q 397 206 347 151 q 491 339 448 261 q 586 559 534 418 q 690 867 637 701 q 718 933 711 920 q 733 956 724 947 q 762 969 743 965 q 801 974 781 974 q 841 962 824 974 q 871 930 859 950 q 880 878 884 911 q 869 817 876 845 q 772 545 814 649 q 691 350 730 441 q 768 192 710 239 q 872 192 826 144 q 960 340 918 239 q 1118 301 1052 434 q 1030 111 1113 212 q 860 -25 943 -3 q 712 -8 778 -46 q 589 139 646 29 q 516 55 568 99 q 389 -23 465 10 q 208 -52 314 -56 q 98 -21 130 -40 q 33 31 67 -3 q -22 114 -1 65 q -43 230 -43 163 q -40 284 -43 241 q -27 374 -37 327 q -3 470 -16 421 q 46 618 11 519 q 110 789 82 717 q 160 926 138 862 z "},"V":{"ha":885,"x_min":-26,"x_max":962,"o":"m 843 233 q 739 236 769 210 q 715 304 708 262 q 777 437 722 346 q 724 600 817 558 q 614 562 659 607 q 536 468 570 517 q 436 334 501 420 q 308 177 363 241 q 212 66 252 113 q 144 -11 170 -3 q 88 -21 119 -20 q 39 -15 57 -22 q -6 50 21 -8 q -18 143 -15 85 q -24 249 -22 201 q -24 344 -26 298 q -24 481 -22 391 q -20 634 -21 571 q -3 795 -18 696 q 13 866 7 843 q 30 907 19 889 q 59 937 41 926 q 103 947 77 947 q 146 928 133 941 q 172 888 159 916 q 174 771 186 844 q 157 642 163 704 q 152 531 152 578 q 157 257 151 484 q 328 474 238 353 q 477 669 410 595 q 617 769 543 744 q 762 777 690 795 q 888 693 833 759 q 953 548 944 625 q 939 382 962 471 q 843 233 916 294 z "},"W":{"ha":1126,"x_min":-44,"x_max":1204,"o":"m 871 529 q 770 391 816 475 q 698 235 726 302 q 649 119 670 167 q 609 40 628 71 q 551 -4 590 9 q 471 5 496 -11 q 425 62 446 22 q 384 152 404 102 q 349 310 363 201 l 261 146 q 192 49 211 71 q 151 14 173 27 q 102 -5 129 1 q 54 -11 76 -11 q -7 7 17 -11 q -38 68 -31 25 q -40 285 -44 226 q -31 431 -36 344 q -19 677 -26 517 q 0 882 -14 827 q 59 949 15 937 q 106 947 95 947 q 148 913 136 928 q 166 880 161 899 q 172 844 172 861 q 173 801 172 826 q 170 748 174 776 q 159 661 165 721 q 149 549 153 602 q 142 435 144 496 q 125 239 139 374 q 181 341 159 305 q 236 433 204 377 l 284 547 q 334 657 318 621 q 369 766 349 694 q 413 863 388 829 q 479 897 438 897 q 537 888 520 897 q 560 863 553 878 q 555 804 560 838 q 536 738 549 770 q 514 662 523 706 q 496 566 505 617 q 484 467 486 497 q 496 380 481 437 q 526 237 519 275 q 554 311 534 272 q 607 414 574 349 q 663 523 639 479 q 735 626 687 567 q 863 720 784 684 q 1058 715 983 751 q 1167 609 1133 678 q 1203 462 1202 540 q 1167 311 1204 384 l 1126 251 q 1006 208 1078 197 q 959 281 956 240 q 1003 375 962 322 q 1041 476 1044 420 q 981 556 1038 532 q 871 529 925 580 z "},"X":{"ha":1002,"x_min":-61,"x_max":1074,"o":"m 758 923 q 814 960 787 945 q 869 980 842 975 q 925 980 897 986 q 962 955 953 975 q 957 908 966 930 q 931 863 948 886 q 895 814 913 840 q 864 776 876 789 q 731 610 792 680 q 595 428 669 540 q 628 355 611 386 q 691 224 645 323 q 766 191 730 165 q 836 248 802 216 q 895 306 869 279 q 955 352 920 332 q 1032 356 990 373 q 1074 281 1074 340 q 962 117 1073 223 q 768 -5 847 19 q 632 6 688 -28 q 521 155 576 41 l 455 304 q 349 160 380 205 q 291 83 317 114 q 234 27 264 53 q 166 -6 205 1 q 83 4 127 -14 q -1 70 39 22 q -46 160 -31 117 q -61 287 -61 203 q 10 361 -41 362 q 77 310 60 361 q 112 228 93 258 q 158 213 131 197 q 212 258 186 229 q 286 346 239 287 q 366 464 334 406 q 308 623 333 559 q 267 751 283 686 q 252 820 257 793 q 241 868 248 846 q 247 913 234 890 q 280 957 260 937 q 336 995 300 978 q 390 1013 372 1013 q 427 990 411 1013 q 442 914 442 968 q 440 861 442 904 q 457 770 440 835 q 513 612 474 705 l 574 691 q 657 799 629 764 q 708 864 685 833 q 758 923 732 895 z "},"Y":{"ha":1076,"x_min":-83,"x_max":1137,"o":"m 383 444 q 317 562 349 505 q 270 683 284 618 q 254 756 258 722 q 250 819 250 790 q 259 889 250 858 q 286 942 269 920 q 324 975 302 963 q 370 986 346 986 q 424 951 421 980 q 422 905 426 922 q 414 867 418 887 q 410 829 410 848 q 419 749 410 789 q 441 675 429 709 q 490 590 454 642 l 553 669 q 651 780 621 758 q 721 817 680 802 q 804 840 762 831 q 928 829 846 848 q 1052 735 1006 800 q 1117 605 1098 671 q 1135 480 1137 540 q 1097 327 1134 420 q 986 233 1041 242 q 895 252 930 224 q 875 348 859 279 q 955 427 942 385 q 971 506 968 469 q 957 586 975 543 q 893 655 940 629 q 805 669 846 680 q 735 634 764 658 q 674 572 696 604 q 587 440 652 541 l 544 382 l 482 279 l 441 211 q 369 105 408 159 q 301 12 342 56 q 187 -46 260 -32 q 46 -12 113 -60 q -56 153 -20 37 q -72 300 -83 249 q 9 363 -60 352 q 74 293 62 354 q 102 193 85 233 q 162 143 119 154 q 294 288 204 132 l 383 444 z "},"Z":{"ha":905,"x_min":-68,"x_max":1004,"o":"m 842 951 q 884 927 873 951 q 896 871 896 904 q 871 781 903 812 q 764 741 823 731 l 675 623 l 587 505 l 498 387 q 370 219 410 269 q 435 183 413 190 q 481 169 456 176 q 566 162 506 162 q 651 182 622 169 q 715 218 681 195 q 781 275 750 241 q 851 354 812 309 q 915 395 890 399 q 956 380 939 391 q 988 352 972 369 q 1002 281 1004 335 q 926 146 975 195 q 825 54 876 97 q 712 -7 774 12 q 552 -28 650 -26 q 459 -21 489 -29 q 396 -6 430 -14 q 315 15 361 1 q 212 49 269 28 q 76 97 139 70 q -19 140 1 128 q -54 183 -39 152 q -61 265 -68 214 q -24 328 -41 311 q 37 340 -7 345 q 105 326 81 336 q 176 294 129 315 q 297 425 252 369 q 397 549 343 481 q 549 754 451 616 q 490 771 519 764 q 424 792 461 778 q 351 807 386 806 q 283 801 315 808 q 239 783 261 794 q 196 766 217 772 q 130 749 176 760 q 80 768 103 749 q 58 840 56 787 q 76 883 65 869 q 132 922 87 898 q 217 970 184 961 q 281 986 249 980 q 343 992 313 992 q 368 990 356 992 q 475 971 431 981 q 550 952 518 961 q 607 939 583 944 q 656 933 631 933 q 710 935 687 933 q 753 940 734 936 q 842 951 772 944 z "},"[":{"ha":53,"x_min":-239,"x_max":654,"o":"m 621 1071 q 646 1062 637 1071 q 654 1039 654 1053 q 649 1018 654 1029 q 634 997 644 1006 q 609 982 624 988 q 574 977 594 977 l 441 977 q 183 467 311 720 q -75 -43 55 213 l 58 -43 q 79 -51 73 -43 q 86 -71 86 -59 q 81 -92 86 -81 q 66 -113 76 -103 q 42 -129 56 -123 q 11 -135 28 -135 l -239 -135 q 66 468 -86 167 q 372 1071 218 769 l 621 1071 z "},"\\":{"ha":200,"x_min":-237,"x_max":509,"o":"m 509 1001 q 188 453 348 727 q -134 -95 27 179 q -157 -119 -143 -112 q -185 -125 -170 -125 q -221 -115 -205 -125 q -237 -89 -237 -105 q -237 -81 -237 -85 q -234 -74 -236 -77 q 83 475 -75 202 q 399 1024 240 748 q 424 1047 409 1040 q 454 1054 438 1054 q 495 1042 480 1054 q 509 1011 509 1029 q 509 1001 509 1004 z "},"]":{"ha":342,"x_min":-294,"x_max":602,"o":"m 602 1067 q 297 464 450 765 q -7 -139 144 163 l -260 -139 q -286 -132 -277 -139 q -294 -113 -294 -124 q -288 -91 -294 -102 q -271 -70 -281 -79 q -244 -54 -260 -60 q -210 -47 -229 -47 l -77 -47 q 437 972 180 464 l 304 972 q 273 982 283 972 q 263 1004 263 991 q 269 1025 263 1014 q 286 1045 275 1036 q 314 1061 297 1055 q 351 1067 330 1067 l 602 1067 z "},"^":{"ha":447,"x_min":-73,"x_max":485,"o":"m 343 928 q 410 850 399 928 q 485 530 457 675 l 485 528 q 418 475 467 475 l 412 475 q 376 511 376 480 q 311 791 341 652 q 28 493 32 493 q -31 473 3 473 q -73 515 -73 483 l -73 521 q 20 633 -73 541 q 168 793 26 642 q 286 915 275 914 q 343 928 318 928 z "},"_":{"ha":694,"x_min":-6,"x_max":699,"o":"m 23 -97 q 1 -92 7 -97 q -6 -77 -6 -86 q 0 -58 -6 -68 q 16 -39 5 -48 q 39 -25 26 -31 q 66 -19 52 -19 l 677 -19 q 693 -25 688 -19 q 699 -39 699 -31 q 694 -58 699 -48 q 680 -77 689 -68 q 660 -91 671 -85 q 633 -97 648 -97 l 23 -97 z "},"`":{"ha":708,"x_min":256,"x_max":431,"o":"m 428 639 q 430 623 429 630 q 431 608 431 615 q 420 572 431 583 q 397 560 410 560 q 369 572 383 560 q 345 606 354 583 q 304 691 325 649 q 264 776 284 733 q 256 811 256 794 q 262 841 256 827 q 278 865 269 855 q 301 881 288 875 q 326 886 313 886 q 368 869 348 886 q 397 808 388 851 q 413 724 405 766 q 428 639 420 682 z "},"a":{"ha":802,"x_min":-39,"x_max":872,"o":"m 370 511 q 291 496 328 511 q 212 438 254 481 q 145 345 170 395 q 113 251 120 294 q 116 206 113 222 q 126 176 118 190 q 149 157 134 163 q 191 151 164 151 q 238 166 210 151 q 294 204 265 180 q 347 254 323 227 q 400 329 372 281 q 435 397 429 376 q 442 442 442 418 q 440 488 449 476 q 421 505 431 500 q 395 510 411 509 q 370 511 378 511 m 857 239 q 807 164 831 198 q 745 95 783 130 q 673 37 707 60 q 606 5 639 14 q 536 -3 574 -3 q 473 2 493 -3 q 436 20 452 7 q 409 49 419 33 q 398 75 399 65 q 399 100 397 85 q 359 63 378 79 q 303 27 340 47 q 239 2 266 8 q 163 -3 212 -3 q 111 2 136 -3 q 58 26 86 7 q 5 74 29 46 q -33 160 -19 102 q -33 277 -39 241 q 2 370 -26 313 q 58 473 29 427 q 155 574 87 519 q 269 647 223 630 q 385 665 315 665 q 454 652 427 665 q 530 608 480 639 q 552 635 538 615 q 622 663 588 675 q 669 639 652 656 q 684 593 685 622 q 639 474 656 509 q 610 407 621 438 q 577 325 600 375 q 549 248 554 274 q 543 202 543 221 q 555 169 543 178 q 606 166 566 159 q 635 184 618 173 q 665 209 652 195 q 691 238 677 222 q 718 272 705 255 q 768 351 743 313 q 827 355 787 362 q 861 333 850 349 q 872 297 872 317 q 857 239 872 268 z "},"b":{"ha":768,"x_min":-31,"x_max":903,"o":"m 363 501 q 276 463 310 482 q 203 388 242 444 q 150 306 164 333 q 130 238 136 279 q 132 212 130 227 q 141 187 134 197 q 160 168 148 177 q 229 151 173 158 q 311 177 269 151 q 380 235 353 203 q 428 303 407 267 q 469 420 449 340 q 466 459 475 437 q 449 488 458 481 q 422 505 439 495 q 363 501 406 514 m 486 110 q 376 35 438 69 q 218 1 313 1 q 106 15 142 1 q 42 49 69 28 q -6 105 14 69 q -31 203 -26 141 q -21 321 -31 271 q 6 411 -11 371 q 76 560 36 481 q 173 785 116 639 l 227 909 q 269 1017 260 1007 q 290 1034 278 1026 q 316 1045 302 1041 q 344 1050 330 1050 q 395 1036 380 1050 q 416 1000 410 1021 q 405 938 416 978 q 317 746 353 832 q 250 608 281 660 q 311 637 269 621 q 391 659 354 653 q 469 658 428 665 q 526 648 507 658 q 566 623 545 639 q 602 583 586 606 q 633 500 618 560 q 622 371 644 431 q 593 289 599 311 q 584 251 587 268 q 625 237 610 235 q 639 239 641 239 q 703 279 675 259 q 751 321 730 299 q 803 354 771 342 q 873 350 843 377 q 891 281 903 323 q 825 195 858 226 q 768 143 793 163 q 716 110 744 123 q 643 85 689 96 q 549 81 596 74 q 509 95 524 87 q 486 110 494 102 z "},"c":{"ha":648,"x_min":-40,"x_max":724,"o":"m 498 601 q 498 547 505 573 q 481 502 492 521 q 445 464 471 483 q 387 444 420 444 q 355 469 357 452 q 349 502 353 487 q 327 516 345 516 q 248 488 283 512 q 181 404 213 464 q 141 308 149 345 q 140 228 134 271 q 220 157 159 167 q 304 170 267 157 q 383 203 342 183 q 466 251 425 224 q 541 299 507 278 q 598 336 575 321 q 629 355 621 352 q 673 358 666 363 q 691 347 680 353 q 705 332 703 340 q 707 319 707 325 q 715 293 707 311 q 687 221 724 274 q 654 196 683 216 q 577 140 626 176 q 488 82 528 105 q 398 36 448 60 q 298 3 348 13 q 167 -2 248 -7 q 76 30 104 9 q 26 76 47 50 q -11 134 5 102 q -33 203 -26 167 q -28 318 -40 270 q -1 407 -16 366 q 62 509 15 447 q 162 612 110 571 q 269 670 214 652 q 389 688 325 688 q 461 665 436 686 q 498 601 486 644 z "},"d":{"ha":768,"x_min":-42,"x_max":872,"o":"m 511 232 q 506 219 511 232 q 501 204 502 205 q 522 180 508 189 q 562 173 536 172 q 619 210 581 180 q 673 256 656 240 q 714 295 690 271 q 775 349 737 319 q 835 349 800 362 q 872 300 847 342 q 842 224 872 264 q 791 163 835 212 q 696 76 747 114 q 597 19 645 38 q 500 -1 550 -1 q 438 16 469 -1 q 396 54 407 33 q 386 86 386 75 q 387 102 386 98 q 329 51 361 75 q 256 14 296 28 q 187 0 216 0 q 119 1 158 -1 q 44 41 73 20 q -3 91 15 63 q -32 157 -22 119 q -42 254 -42 195 q -18 368 -35 316 q 42 477 0 419 q 129 574 84 536 q 219 634 174 612 q 306 668 264 656 q 408 687 347 680 q 524 670 468 687 l 577 808 l 630 946 q 646 986 636 966 q 669 1019 656 1005 q 700 1042 682 1034 q 728 1050 718 1050 q 779 1037 758 1050 q 806 985 799 1023 q 802 954 806 970 q 767 860 798 937 q 722 737 736 782 q 659 582 707 692 q 565 366 610 473 q 511 232 519 259 m 461 531 q 367 532 416 536 q 249 470 296 505 q 158 368 201 435 q 111 242 115 301 q 157 171 111 191 q 251 181 208 155 q 314 233 293 207 q 355 293 336 258 q 399 388 374 327 q 461 531 425 449 z "},"e":{"ha":698,"x_min":-40,"x_max":802,"o":"m 363 562 l 345 563 q 293 554 313 563 q 250 530 273 546 q 190 478 227 515 q 138 408 153 441 q 116 341 123 376 q 115 253 109 307 q 226 294 195 276 q 275 324 257 311 q 321 364 292 336 q 378 429 349 392 q 404 494 402 473 q 400 535 406 515 q 384 555 393 550 q 363 562 374 560 m 358 696 q 482 659 426 703 q 541 526 538 614 q 517 396 543 454 q 459 295 492 338 q 367 210 426 253 q 225 155 307 168 q 341 127 285 123 q 457 147 398 131 q 554 190 517 163 q 618 250 591 217 q 654 306 646 283 q 684 345 662 329 q 749 340 706 360 q 776 244 802 316 q 729 160 757 193 q 657 90 701 127 q 565 30 613 54 q 454 -7 517 5 q 329 -21 390 -20 q 185 -10 269 -22 q 77 40 119 10 q 12 105 36 71 q -25 174 -12 140 q -40 275 -37 208 q -29 380 -40 337 q 3 467 -18 424 q 67 557 25 511 q 158 637 109 604 q 253 682 208 670 q 358 696 298 694 z "},"f":{"ha":590,"x_min":-88,"x_max":703,"o":"m 598 248 q 484 245 522 246 q 389 244 446 244 q 304 243 332 243 q 239 243 275 243 q 222 199 232 222 q 196 129 213 176 q 149 -11 178 81 q 79 -231 119 -104 q 46 -281 62 -270 q 14 -299 31 -293 q -16 -305 -2 -305 q -69 -283 -50 -305 q -75 -206 -88 -262 l -25 -63 l 25 80 l 75 224 l 78 246 l 41 246 q -24 260 -4 246 q -50 319 -43 274 q -30 372 -50 353 q 30 390 -9 390 l 127 390 q 264 704 220 628 q 352 825 309 781 q 449 886 395 869 q 559 903 503 903 q 643 877 614 895 q 687 826 671 859 q 703 758 703 794 q 692 680 703 722 q 659 646 678 654 q 633 639 640 639 q 579 657 595 640 q 570 708 568 683 q 524 772 569 772 q 472 759 498 772 q 417 700 446 746 q 375 624 388 654 q 333 516 362 593 l 282 390 l 398 390 l 514 390 q 586 389 553 390 q 634 384 618 388 q 661 371 651 380 q 670 343 670 361 q 667 298 670 321 q 656 268 664 275 q 634 254 648 260 q 598 248 621 249 z "},"g":{"ha":737,"x_min":-92,"x_max":820,"o":"m 341 680 q 420 672 395 680 q 463 654 445 663 q 497 614 482 642 q 546 661 522 648 q 603 674 570 674 q 641 650 629 667 q 652 594 652 633 q 640 541 646 570 l 579 399 l 517 258 l 555 279 q 631 320 587 303 q 709 344 675 336 q 758 351 743 351 q 777 351 773 351 q 804 331 794 345 q 820 298 813 318 q 804 251 820 277 q 762 214 788 224 q 683 187 722 197 q 605 156 644 177 q 536 115 566 135 q 450 59 507 96 l 363 -115 l 307 -229 q 258 -314 279 -291 q 219 -353 238 -336 q 181 -376 199 -370 q 123 -389 163 -382 q 39 -376 79 -389 q -43 -313 -2 -362 q -83 -177 -92 -243 q -30 -112 -82 -126 q 40 -164 28 -111 q 112 -227 64 -239 q 199 -136 160 -214 l 258 -18 l 317 100 q 283 87 311 99 q 227 71 255 75 q 183 68 199 68 q 113 78 153 68 q 45 114 74 89 q -1 173 16 139 q -25 261 -18 208 q 4 409 -25 345 q 70 524 33 473 q 181 631 106 574 q 341 680 256 687 m 317 540 q 236 502 267 526 q 179 440 205 477 q 134 365 153 403 q 115 298 115 326 q 131 242 115 258 q 187 223 146 226 q 249 229 224 223 q 304 258 273 234 q 355 306 336 282 q 388 358 374 329 q 412 431 403 387 q 409 501 418 481 q 383 533 399 521 q 317 540 366 545 z "},"h":{"ha":745,"x_min":-79,"x_max":852,"o":"m -53 181 q 47 546 -33 277 l 117 812 q 173 999 161 981 q 198 1024 185 1016 q 226 1036 212 1031 q 256 1040 241 1040 q 312 1020 298 1034 q 326 987 326 1006 q 310 912 326 969 l 243 629 q 293 652 271 644 q 351 666 315 661 q 431 664 387 671 q 477 656 457 664 q 515 633 498 648 q 544 600 533 618 q 562 553 555 581 q 573 491 575 516 q 555 391 570 465 q 526 268 541 317 q 507 185 511 218 l 519 163 q 558 169 541 161 q 592 189 580 176 q 626 216 604 201 q 660 249 648 231 q 691 285 672 267 q 730 326 711 304 q 797 339 749 348 q 848 294 835 332 q 812 203 852 252 q 751 125 787 164 q 679 55 715 86 q 595 7 642 24 q 490 -9 548 -9 q 397 21 432 -9 q 348 108 361 51 q 345 193 341 156 q 360 265 349 231 q 391 417 371 299 q 388 475 395 466 q 353 493 380 485 q 272 477 305 493 q 215 427 239 460 q 175 340 191 394 q 141 247 159 286 q 108 137 130 208 q 75 43 87 65 q 47 9 64 21 q -1 -2 31 -2 q -52 21 -36 5 q -73 69 -67 38 q -53 181 -79 100 z "},"i":{"ha":520,"x_min":-48,"x_max":596,"o":"m 145 672 q 126 716 132 690 q 130 763 126 739 q 151 810 134 787 q 191 846 167 833 q 248 859 215 859 q 331 826 310 851 q 359 767 353 800 q 353 711 359 734 q 332 673 346 688 q 295 645 317 657 q 277 637 287 640 q 282 609 282 624 q 263 560 281 601 q 224 474 244 519 q 195 409 204 429 q 136 257 145 295 q 134 196 127 219 q 164 167 148 172 q 203 163 180 163 q 253 181 228 170 q 326 233 277 193 q 403 299 375 273 q 452 347 431 326 q 494 385 473 368 q 561 390 522 406 q 596 328 593 372 q 586 283 596 307 q 551 238 575 259 q 455 142 504 182 q 362 69 406 102 q 266 15 317 35 q 141 -5 214 -5 q 0 68 47 -5 q -33 239 -48 140 q -21 322 -33 282 q 0 385 -9 363 q 74 564 9 407 q 119 642 102 608 q 145 672 131 661 z "},"j":{"ha":730,"x_min":-79,"x_max":823,"o":"m 629 646 l 629 643 q 633 611 635 626 q 626 579 630 597 q 612 536 621 562 q 571 439 602 511 l 540 367 l 471 210 q 590 308 553 283 q 692 355 627 332 q 764 365 731 369 q 811 338 800 362 q 819 282 823 313 q 793 234 816 252 q 693 198 771 217 l 606 133 l 541 81 q 482 27 496 39 q 399 -53 468 16 q 302 -152 357 -115 q 157 -192 246 -189 q -8 -113 55 -187 q -76 88 -72 -31 l -79 203 q -14 349 -73 323 q 81 286 66 373 l 76 226 l 72 142 q 103 34 81 66 q 161 -2 126 1 q 221 17 196 -6 q 269 102 246 41 q 304 187 290 146 q 340 280 319 228 q 382 384 361 332 q 423 483 404 436 q 456 571 443 530 q 477 640 469 611 q 507 677 490 663 q 483 727 490 695 q 487 774 483 749 q 507 821 491 798 q 548 857 524 844 q 605 869 572 869 q 688 837 667 862 q 716 778 709 811 q 709 722 716 745 q 688 684 703 699 q 652 656 674 668 q 629 646 641 650 z "},"k":{"ha":728,"x_min":-91,"x_max":873,"o":"m 163 336 q 182 336 172 336 q 289 347 238 336 q 382 382 340 357 q 450 432 424 408 q 492 484 477 456 q 490 560 508 511 q 427 577 469 584 q 321 537 380 572 q 219 441 262 501 q 165 341 185 412 q 163 336 163 338 m 109 157 q 105 140 107 149 q 79 68 94 96 q -12 -3 53 -3 q -65 5 -50 -3 q -87 37 -79 14 q -87 44 -87 41 q -86 51 -87 47 q -85 101 -91 67 q -68 177 -80 134 q 0 418 -57 219 l 61 637 l 111 837 l 151 989 q 176 1057 170 1044 q 196 1078 183 1070 q 222 1090 208 1085 q 252 1095 237 1095 q 309 1067 295 1081 q 323 1027 323 1053 q 308 926 320 983 q 231 629 295 869 q 301 675 261 654 q 369 706 341 695 q 456 724 397 718 q 526 718 497 724 q 574 698 554 712 q 611 659 593 684 q 643 581 629 633 q 643 468 652 520 q 600 367 633 416 q 488 270 566 319 q 279 208 410 222 q 435 139 369 149 q 563 163 500 130 q 667 242 626 197 q 750 332 708 288 q 792 362 765 363 q 860 319 840 362 q 860 242 873 268 q 801 163 846 217 q 688 62 744 102 q 572 7 632 22 q 425 -2 512 -9 q 203 90 338 5 q 109 157 143 125 z "},"l":{"ha":560,"x_min":-54,"x_max":684,"o":"m 121 299 q 112 231 106 261 q 146 186 117 201 q 223 185 176 179 q 305 207 271 191 q 372 239 339 222 q 442 280 406 256 q 508 327 478 305 q 574 366 538 349 q 640 367 607 385 q 684 311 665 349 q 660 248 677 268 q 596 189 643 229 q 475 115 521 144 q 384 64 429 85 q 297 26 338 44 q 156 1 256 7 q 84 9 112 1 q 31 39 56 18 q -14 86 5 60 q -47 161 -33 113 q -50 247 -54 205 q -37 320 -45 288 q 39 506 17 457 l 80 616 l 147 787 l 188 884 l 228 980 q 261 1021 241 1009 q 308 1034 281 1034 q 354 1021 334 1034 q 380 979 373 1008 q 364 918 380 966 q 329 841 345 882 q 260 659 313 800 l 220 559 l 180 460 q 121 299 140 360 z "},"m":{"ha":999,"x_min":-75,"x_max":1137,"o":"m 293 47 q 293 126 286 85 q 310 210 300 167 q 338 331 320 252 q 361 436 355 409 q 367 488 367 463 q 325 519 353 519 q 257 505 285 519 q 217 480 230 490 q 171 418 204 469 q 124 227 132 258 q 102 139 115 197 q 79 61 87 88 q 54 16 72 35 q -5 -2 37 -2 q -51 17 -34 -2 q -75 61 -68 35 q -71 107 -75 76 q -46 233 -67 138 l -12 395 l 9 490 l 31 585 q 55 641 38 621 q 110 675 73 661 q 179 660 163 675 q 195 631 195 645 l 193 599 q 234 643 216 627 q 301 674 252 659 q 401 683 349 690 q 470 663 451 678 q 499 631 490 647 q 511 588 509 616 q 552 622 530 607 q 599 651 574 636 q 655 674 625 665 q 755 676 685 683 q 800 660 775 669 q 839 637 824 650 q 865 602 854 623 q 876 543 876 581 q 868 461 876 494 q 835 331 859 429 q 806 211 810 233 q 817 154 802 189 q 869 159 842 151 q 914 196 896 176 q 949 242 932 216 q 982 292 967 268 q 1028 338 998 315 q 1078 345 1057 348 q 1137 300 1120 335 q 1131 251 1137 271 q 1114 213 1124 231 q 1059 129 1084 164 q 990 57 1034 94 q 900 10 947 21 q 794 -1 854 -1 q 697 27 734 -1 q 640 104 660 56 q 638 193 633 157 q 653 262 644 229 q 673 342 662 294 q 694 422 685 390 q 707 480 703 455 q 686 519 711 505 q 602 501 626 519 q 556 460 578 483 q 518 377 534 437 q 495 289 503 318 q 470 170 488 260 q 455 116 462 144 q 437 61 448 88 q 405 16 427 35 q 357 -2 384 -2 q 336 2 347 -2 q 315 12 324 5 q 300 27 306 18 q 293 47 294 36 z "},"n":{"ha":728,"x_min":-63,"x_max":876,"o":"m 41 602 q 73 649 55 637 q 127 667 90 660 q 176 649 161 660 q 187 595 192 637 q 228 635 205 618 q 289 665 252 652 q 362 683 326 677 q 457 675 399 688 q 526 640 500 661 q 559 576 552 619 q 560 491 566 533 q 550 420 555 449 q 532 317 546 392 q 514 196 517 243 q 555 150 519 157 q 606 166 582 152 q 646 207 630 189 q 684 253 662 225 q 721 300 706 280 q 760 336 736 321 q 807 343 786 347 q 863 316 829 339 q 870 263 876 291 q 826 178 865 235 q 743 85 781 113 q 673 36 706 57 q 578 -3 641 16 q 533 -9 544 -9 q 494 -9 522 -9 q 424 2 450 -9 q 376 35 397 12 q 351 99 356 68 q 348 168 346 144 q 364 272 349 192 q 399 454 378 351 q 382 498 392 486 q 337 517 372 510 q 241 469 285 510 q 177 369 197 428 q 122 168 156 310 q 101 53 113 79 q 72 9 90 26 q 19 -9 54 -9 q -40 9 -24 -9 q -63 67 -56 27 q -46 180 -63 81 l -22 301 l 8 455 q 41 602 18 534 z "},"o":{"ha":754,"x_min":-43,"x_max":874,"o":"m 279 515 q 212 493 241 515 q 166 443 183 471 q 129 354 149 414 q 116 245 109 294 q 122 212 116 230 q 139 177 127 193 q 168 154 150 161 q 211 146 186 146 q 277 163 248 146 q 330 212 306 180 q 371 310 355 245 q 388 422 388 374 q 379 456 388 439 q 356 489 370 474 q 323 510 341 504 q 279 515 304 515 m 322 673 q 388 665 353 673 q 454 634 424 657 q 505 579 485 611 q 538 498 525 547 q 546 439 545 467 q 526 316 546 411 q 531 268 513 279 q 581 223 549 257 q 659 229 630 213 q 706 276 688 245 q 750 329 725 307 q 818 351 775 351 q 865 306 856 331 q 867 255 874 280 q 841 206 861 231 q 802 156 822 182 q 749 102 781 130 q 675 60 717 75 q 573 52 633 46 q 464 121 505 79 q 428 84 441 102 q 381 44 414 67 q 311 5 348 20 q 194 -10 275 -10 q 113 6 144 -3 q 56 36 83 15 q 3 90 28 56 q -37 172 -23 123 q -43 251 -43 205 q -21 369 -43 296 q 27 489 1 441 q 93 582 54 537 q 191 650 132 627 q 322 673 250 673 z "},"p":{"ha":754,"x_min":-121,"x_max":867,"o":"m 130 211 q 146 209 137 210 q 288 218 225 197 q 390 276 351 239 q 438 358 429 314 q 450 447 448 403 q 437 512 451 490 q 368 543 408 539 q 308 523 337 536 q 254 487 279 509 q 205 414 229 464 q 168 333 181 365 q 144 260 155 302 q 130 211 136 232 m 102 83 q 68 -98 85 -4 l 41 -254 q 19 -322 26 -309 q -8 -344 13 -336 q -50 -352 -28 -352 q -93 -341 -78 -352 q -121 -298 -107 -330 q -119 -251 -121 -283 q -104 -148 -118 -219 l -2 408 q 20 527 16 502 q 37 594 24 553 q 68 653 51 635 q 109 684 85 671 q 176 663 164 678 q 189 633 188 648 q 189 594 191 618 q 234 639 211 620 q 286 668 257 658 q 343 685 314 679 q 403 690 373 692 q 465 682 450 685 q 503 664 481 678 q 545 621 526 649 q 578 544 564 593 q 589 444 593 495 q 575 358 584 393 q 559 306 566 323 q 540 262 553 288 q 618 211 587 205 q 671 239 649 217 q 727 318 692 260 q 819 359 749 366 q 858 326 850 345 q 863 280 867 307 q 838 201 859 254 q 730 77 782 111 q 635 46 677 43 q 543 64 592 48 q 448 134 494 80 q 308 76 388 93 q 167 72 227 59 q 102 83 127 76 z "},"q":{"ha":721,"x_min":-43,"x_max":816,"o":"m 416 484 l 404 526 q 367 545 387 536 q 321 553 347 553 q 243 528 276 553 q 174 450 210 503 q 122 346 138 397 q 105 252 105 295 q 137 195 112 210 q 182 180 163 180 q 245 196 224 180 q 295 247 267 213 q 353 340 324 281 q 416 484 381 399 m 491 221 q 601 298 568 281 q 670 323 633 315 q 736 334 707 334 q 791 305 772 328 q 812 248 809 283 q 791 197 816 213 q 745 179 767 182 q 694 168 724 176 q 550 102 583 124 q 439 20 517 81 q 411 -30 429 -3 l 369 -159 l 326 -289 l 288 -366 q 230 -411 261 -418 q 184 -398 199 -404 q 157 -370 170 -391 q 145 -326 145 -349 q 146 -300 145 -311 q 151 -277 146 -290 q 177 -185 155 -264 l 224 -52 l 250 33 q 187 21 204 17 q 140 25 170 25 q 60 48 95 32 q 4 90 26 64 q -30 151 -18 116 q -43 236 -42 185 q -25 358 -42 304 q 21 466 -8 411 q 78 555 50 521 q 150 625 106 589 q 235 679 195 661 q 321 703 276 696 q 378 703 354 703 q 439 682 403 702 q 484 653 471 665 q 547 675 519 675 q 592 660 574 675 q 618 622 610 645 q 593 475 625 576 l 553 372 l 491 221 z "},"r":{"ha":681,"x_min":-66,"x_max":774,"o":"m 269 584 q 353 612 314 607 q 426 616 392 617 q 501 609 460 616 q 591 582 542 603 q 684 510 655 541 q 735 433 712 478 q 764 336 759 387 q 709 240 774 254 q 604 277 644 225 q 550 358 573 328 q 481 405 526 389 q 384 422 437 421 q 292 400 331 424 q 224 339 252 376 q 184 281 196 302 q 159 193 168 237 q 157 96 149 148 q 137 46 152 68 q 100 8 122 24 q 47 -17 78 -8 q -10 -25 16 -25 q -50 -5 -33 -25 q -56 87 -66 15 q -46 172 -53 119 q -27 277 -39 224 q 7 388 -16 330 q 34 509 30 446 q 5 579 28 555 q -20 635 -18 602 q -11 675 -20 658 q 16 702 -1 692 q 54 718 32 713 q 100 724 75 724 q 184 711 159 726 q 215 668 208 695 q 205 539 221 640 q 206 538 205 538 l 207 538 l 269 584 z "},"s":{"ha":601,"x_min":-50,"x_max":657,"o":"m 427 452 q 536 395 500 414 q 597 351 571 376 q 637 302 624 326 q 657 235 650 278 q 626 125 656 174 q 546 47 595 77 q 426 1 496 17 q 296 -7 355 -14 q 184 17 248 -7 q 83 71 121 41 q 10 141 44 100 q -50 252 -24 182 l -44 294 q -9 345 -31 333 q 71 342 12 356 q 129 261 111 286 q 185 210 148 237 q 249 170 222 184 q 327 150 277 157 q 384 156 356 150 q 434 170 412 161 q 471 192 455 178 q 480 235 486 207 q 446 271 465 263 q 397 294 428 279 q 335 328 367 310 q 264 381 302 346 q 214 443 237 408 q 189 548 191 477 q 225 655 199 621 q 279 710 252 690 q 338 748 307 731 q 419 772 370 766 q 505 780 460 786 q 569 763 550 774 q 600 736 589 751 q 612 675 611 721 q 537 618 594 610 q 442 619 481 627 q 373 591 403 611 q 342 535 343 571 q 427 452 340 498 z "},"t":{"ha":532,"x_min":-39,"x_max":611,"o":"m 222 460 q 182 355 196 395 q 149 265 168 315 q 140 197 139 245 q 212 158 158 158 q 291 172 270 165 q 333 191 311 180 q 376 217 354 201 q 417 250 397 233 q 455 286 437 268 q 496 324 472 303 q 549 347 524 340 q 590 331 577 340 q 606 309 603 321 q 610 272 610 296 q 586 214 611 248 q 504 129 544 164 q 411 62 464 94 q 311 14 359 31 q 184 -3 263 -3 q 100 5 123 -3 q 39 34 77 14 q -31 132 1 53 q -37 204 -38 175 q -12 304 -36 234 l 22 380 l 55 463 l 25 463 q -14 478 4 463 q -39 519 -32 493 q -15 596 -33 581 q 24 610 4 610 l 117 610 l 143 696 l 175 785 q 217 832 192 818 q 270 846 243 846 q 317 833 296 846 q 338 787 338 819 q 312 702 338 771 q 278 610 298 667 l 336 610 l 381 610 q 418 608 401 610 q 448 599 435 606 q 467 582 460 593 q 474 552 474 571 q 464 513 474 536 q 446 482 454 490 q 424 469 438 475 q 388 463 410 464 l 305 461 l 222 460 z "},"u":{"ha":777,"x_min":-42,"x_max":892,"o":"m 873 230 q 806 160 831 182 q 751 111 782 138 q 682 62 721 84 q 606 33 642 40 q 542 32 570 26 q 472 59 514 37 l 426 83 q 361 34 380 47 q 308 9 342 22 q 241 -5 273 -3 q 171 -7 210 -7 q 71 18 100 4 q 20 55 42 32 q -28 121 -1 79 q -42 180 -42 149 q -38 253 -42 211 q 0 395 -34 295 q 60 593 33 495 q 100 658 77 644 q 149 671 122 671 q 172 669 160 671 q 205 653 184 666 q 224 607 227 640 q 216 570 220 593 q 205 522 213 547 q 180 425 197 496 q 153 320 163 353 q 140 229 142 286 q 158 185 146 201 q 216 163 170 169 q 315 203 281 170 q 366 271 349 235 q 412 395 384 307 q 463 560 454 538 q 479 609 471 582 q 511 654 486 636 q 563 673 536 673 q 623 654 606 673 q 640 608 640 635 q 616 490 633 559 q 585 376 598 421 q 562 293 572 332 q 548 237 552 254 q 557 208 543 220 q 614 205 584 199 q 706 270 652 219 q 798 349 759 320 q 877 319 863 353 q 873 230 892 285 z "},"v":{"ha":705,"x_min":-30,"x_max":809,"o":"m 724 176 q 600 105 663 129 q 463 75 538 81 q 405 77 425 75 q 340 109 385 79 q 286 71 312 94 q 201 14 260 47 l 130 -3 q 74 7 100 -3 q 27 38 47 18 q -4 90 7 59 q -30 161 -16 120 q -22 268 -30 210 q -9 384 -14 326 q 2 488 -3 441 q 16 595 7 534 q 58 646 26 631 q 114 661 90 661 q 136 657 125 661 q 156 647 147 654 q 171 631 165 640 q 177 612 177 623 l 180 595 q 161 475 168 522 q 150 378 155 429 q 143 294 145 327 q 141 224 141 262 q 143 209 141 218 q 147 191 144 199 q 154 176 149 182 q 163 170 158 170 q 208 200 184 176 q 294 320 231 224 q 367 437 334 378 q 421 533 401 496 q 464 600 441 570 q 505 650 486 631 q 544 670 524 670 q 592 648 578 670 q 606 595 606 626 q 594 532 606 561 q 551 441 583 503 q 492 341 518 379 q 435 252 466 304 q 477 235 448 235 q 532 242 507 235 q 582 263 557 250 q 627 293 606 277 q 684 346 648 309 q 741 394 703 387 q 796 374 789 387 q 809 313 802 360 q 792 257 809 290 q 724 176 775 224 z "},"w":{"ha":1008,"x_min":-31,"x_max":1118,"o":"m 8 420 q 31 539 21 492 q 55 605 41 585 q 83 642 69 625 q 119 659 98 659 q 178 638 151 659 q 205 585 205 617 q 178 444 198 523 q 154 299 166 353 q 135 178 142 245 q 139 161 135 167 q 149 155 144 155 q 168 160 159 155 q 200 179 178 164 q 250 223 222 195 q 327 312 305 279 q 368 378 349 345 q 403 462 387 411 q 450 572 419 513 q 472 627 462 611 q 492 651 483 643 q 512 663 502 660 q 536 666 522 666 q 595 621 588 666 q 589 582 593 614 q 557 451 584 549 l 528 356 q 496 194 498 264 q 517 152 489 152 q 568 186 549 168 q 609 227 587 205 q 654 286 631 248 q 692 409 666 342 q 743 533 718 476 q 793 620 768 589 q 849 652 819 650 q 893 635 876 652 q 911 589 911 617 q 899 508 911 556 q 872 421 886 459 q 834 337 857 382 q 789 255 811 291 l 814 237 q 877 236 847 231 q 930 254 906 241 q 965 281 955 267 q 1019 332 976 294 q 1074 342 1033 342 q 1104 315 1090 328 q 1118 269 1118 302 q 1101 220 1118 250 q 1057 162 1084 191 q 996 113 1030 133 q 926 85 962 94 q 858 72 890 76 q 800 75 825 68 q 703 123 753 96 q 599 24 650 51 q 469 -3 549 -3 q 374 28 408 -3 q 334 121 340 60 q 214 27 270 57 q 100 -3 159 -3 q 37 5 62 -3 q -3 31 12 14 q -25 68 -18 47 q -31 116 -31 90 q -23 224 -31 157 q 8 420 -14 291 z "},"x":{"ha":762,"x_min":-62,"x_max":840,"o":"m 276 686 q 290 684 276 686 q 318 655 304 683 q 340 598 332 627 q 361 519 348 570 l 380 444 l 484 557 q 616 680 560 646 q 678 679 654 694 q 704 618 701 664 q 649 533 673 559 l 585 461 l 483 340 l 422 278 l 437 215 q 486 161 457 154 q 558 188 517 168 q 661 252 599 208 l 743 309 q 774 318 758 318 q 815 299 791 318 q 840 262 840 281 q 825 214 840 241 q 770 159 809 186 q 667 85 714 115 q 572 30 621 56 q 491 -4 524 5 q 425 -12 458 -12 q 320 23 351 -12 q 270 147 290 59 l 203 56 l 157 18 q 101 -3 127 -1 q 41 2 75 -5 q -21 99 1 37 q -62 227 -43 160 q 21 328 -62 334 q 77 276 67 305 q 98 221 86 247 q 130 210 110 195 q 191 270 150 224 l 236 318 l 216 409 l 197 499 q 188 617 183 576 q 220 673 193 657 q 276 686 248 688 z "},"y":{"ha":766,"x_min":-41,"x_max":829,"o":"m 443 616 q 473 650 465 641 q 493 663 482 659 q 520 671 504 667 q 566 669 536 675 q 603 657 589 669 q 616 631 616 645 q 612 611 616 621 l 497 216 q 588 270 557 254 q 662 311 620 286 q 739 349 703 336 q 780 362 775 362 q 818 334 806 362 q 829 276 829 305 q 814 232 829 255 q 760 189 799 210 q 665 140 705 158 q 592 104 624 121 q 543 73 561 87 q 504 43 526 58 q 468 15 482 28 q 430 -28 454 1 q 394 -118 412 -75 q 362 -195 376 -161 q 338 -248 347 -228 q 328 -270 328 -269 q 188 -402 264 -402 q 137 -381 157 -402 q 117 -325 117 -361 q 125 -260 117 -292 q 154 -188 134 -227 q 202 -100 175 -149 q 269 14 230 -52 l 327 125 l 345 176 q 263 92 302 124 q 182 43 223 60 q 58 45 94 31 q -12 97 22 59 q -40 186 -39 136 q -38 240 -41 222 q -29 280 -34 257 q -9 361 -24 302 q 24 493 5 419 q 58 623 42 566 q 134 682 81 682 q 186 670 165 682 q 210 623 206 659 l 193 555 l 153 393 l 127 290 q 132 195 97 216 q 227 238 179 193 q 319 350 284 298 q 420 560 353 402 l 443 616 z "},"z":{"ha":779,"x_min":-48,"x_max":859,"o":"m 732 342 q 822 355 785 374 q 859 294 859 337 l 852 254 q 813 179 833 210 q 754 114 794 149 q 688 60 715 80 q 634 28 661 41 q 549 8 608 16 l 477 0 q 385 1 404 -1 q 260 16 366 2 q 71 97 121 60 q -7 166 20 134 q -41 231 -35 198 q -23 321 -48 306 q 32 338 2 337 q 110 303 62 340 q 225 333 157 267 l 296 402 l 409 525 q 344 522 401 525 q 233 519 287 519 l 138 519 q 99 533 111 519 q 87 554 87 547 q 94 596 88 569 q 110 638 100 623 q 135 665 120 654 q 170 677 149 677 q 216 677 190 677 q 270 677 243 677 q 360 679 296 677 q 479 680 424 680 q 574 681 534 680 q 627 681 614 681 q 657 674 646 681 q 674 659 669 668 q 686 631 680 650 q 692 603 692 612 q 685 567 692 585 q 657 527 677 548 q 607 477 636 507 q 529 396 577 447 q 444 306 480 345 q 380 237 408 266 q 311 189 355 215 q 401 167 364 166 q 477 176 439 168 q 610 204 565 184 q 668 247 654 225 q 692 287 682 268 q 732 342 701 307 z "},"{":{"ha":76,"x_min":-218,"x_max":595,"o":"m 576 1023 q 590 1016 585 1023 q 595 997 595 1008 q 591 973 595 986 q 577 949 586 960 q 553 930 568 938 q 520 923 539 923 q 444 919 473 923 q 395 902 415 914 q 360 867 375 889 q 326 809 345 844 l 227 621 q 181 544 200 573 q 144 499 162 515 q 106 475 126 483 q 56 464 85 468 q 78 431 72 448 q 85 395 85 414 q 76 347 85 372 q 53 297 66 323 l -94 20 q -100 -2 -101 4 q -73 -30 -100 -22 q 7 -39 -46 -39 q 28 -47 21 -39 q 35 -66 35 -55 q 29 -91 35 -78 q 13 -114 23 -103 q -14 -132 2 -125 q -48 -139 -29 -139 q -175 -114 -132 -139 q -218 -40 -218 -90 q -217 -25 -218 -33 q -214 -11 -216 -18 q -210 7 -212 -1 q -203 27 -208 15 q -189 59 -198 40 q -164 108 -180 77 q -125 183 -149 138 q -68 292 -102 228 q -46 340 -56 315 q -37 385 -37 366 q -45 410 -37 400 q -76 419 -54 419 q -98 428 -91 419 q -105 448 -105 436 q -100 470 -105 458 q -85 492 -95 482 q -60 508 -75 501 q -25 514 -45 514 q 16 520 -3 514 q 51 541 34 527 q 84 575 68 554 q 116 627 100 597 l 222 831 q 282 929 254 891 q 342 989 309 967 q 417 1018 374 1010 q 524 1026 460 1026 l 576 1023 z "},"|":{"ha":574,"x_min":198,"x_max":671,"o":"m 671 1067 l 304 -139 l 198 -139 l 559 1067 l 671 1067 z "},"}":{"ha":380,"x_min":-275,"x_max":525,"o":"m -255 -136 q -270 -129 -265 -136 q -275 -110 -275 -121 q -271 -86 -275 -99 q -257 -62 -266 -73 q -234 -43 -248 -51 q -201 -36 -220 -36 q -126 -32 -155 -36 q -77 -15 -97 -27 q -42 20 -57 -2 q -9 78 -27 43 l 89 266 q 134 342 115 313 q 170 388 152 372 q 208 412 188 404 q 258 423 228 419 q 234 455 241 439 q 227 490 227 472 q 236 538 227 512 q 258 590 245 564 l 402 867 q 408 888 408 880 q 381 917 408 908 q 300 926 354 926 q 279 934 286 926 q 273 954 273 942 q 278 978 273 965 q 294 1001 283 991 q 320 1019 305 1012 q 355 1026 335 1026 q 482 1001 439 1026 q 525 926 525 976 q 522 898 525 911 q 518 880 520 888 q 511 860 516 872 q 498 829 507 848 q 474 779 490 810 q 436 704 459 749 q 380 595 413 659 q 358 547 368 572 q 349 504 349 523 q 357 478 349 488 q 389 468 366 468 q 411 459 404 468 q 418 437 418 450 q 413 416 418 427 q 398 395 408 404 q 374 379 389 385 q 339 373 359 373 q 263 347 295 373 q 199 260 232 320 l 95 56 q 37 -43 64 -5 q -22 -102 10 -81 q -98 -131 -55 -123 q -203 -139 -140 -139 l -255 -136 z "},"~":{"ha":582,"x_min":-47,"x_max":652,"o":"m 177 995 l 185 995 q 375 926 245 995 q 458 904 429 904 q 588 979 517 904 q 622 987 608 987 q 652 952 648 987 q 533 791 652 877 q 430 762 481 762 q 228 831 362 762 q 161 851 182 850 q 21 774 90 851 q -3 768 3 768 l -13 768 q -47 807 -43 768 q 60 956 -47 856 q 177 995 117 995 z "},"":{"ha":867,"x_min":-64,"x_max":935,"o":"m 434 -182 q 100 74 238 -74 q -58 421 -64 253 q 12 606 -55 532 q 174 692 79 681 q 439 564 342 703 q 692 684 523 703 q 853 600 781 681 q 926 418 926 518 q 762 68 935 258 q 434 -182 625 -74 z "},"":{"ha":930,"x_min":-36,"x_max":964,"o":"m 463 -222 q 129 33 267 -114 q -29 380 -36 212 q 40 566 -26 492 q 203 652 107 640 q 468 524 371 663 q 721 643 551 663 q 882 559 810 640 q 954 378 954 478 q 790 28 964 218 q 463 -222 653 -114 m 468 318 q 317 472 380 435 q 189 475 254 509 q 126 386 138 440 q 133 282 115 332 q 234 139 150 233 q 463 -32 318 45 q 692 143 602 53 q 799 326 782 233 q 736 469 815 418 q 603 461 659 505 q 468 318 547 418 z "},"":{"ha":907,"x_min":-52,"x_max":968,"o":"m 353 833 q 366 781 353 806 q 403 743 380 757 q 456 730 426 730 q 502 743 477 730 q 540 781 526 757 q 553 833 553 806 q 540 883 553 857 q 502 920 526 909 q 456 930 477 930 q 403 920 426 930 q 366 883 380 909 q 353 833 353 857 m 382 624 q 342 646 374 627 q 262 726 290 673 q 233 836 233 779 q 262 944 233 892 q 343 1025 290 996 q 453 1055 396 1055 q 562 1025 510 1055 q 643 944 613 996 q 673 836 673 892 q 643 726 673 779 q 562 646 613 673 q 529 624 529 627 l 529 575 l 643 575 l 760 575 l 760 445 l 643 445 l 529 445 l 529 307 l 529 144 q 651 193 591 146 q 738 277 700 222 l 686 334 l 968 388 l 890 125 l 833 174 q 700 68 798 130 q 453 0 594 0 q 212 73 301 8 q 81 176 133 122 l 27 130 l -52 380 l 231 317 l 187 269 q 293 182 233 220 q 382 146 336 157 l 382 307 l 382 445 l 269 445 l 146 445 l 146 575 l 266 575 l 382 575 l 382 624 z "},"":{"ha":836,"x_min":-53,"x_max":920,"o":"m 465 990 q 501 920 484 960 q 530 857 519 879 q 573 803 541 836 q 599 789 578 798 q 630 773 619 781 q 646 751 641 765 q 646 749 646 751 q 646 743 646 746 q 634 718 646 727 q 603 704 622 708 q 562 694 584 700 q 589 642 568 665 q 656 583 611 618 q 720 532 701 548 q 749 494 739 515 q 717 464 749 464 q 694 465 709 464 q 673 467 679 467 q 660 464 663 467 q 717 399 671 431 q 806 335 763 366 q 858 274 850 304 q 858 263 858 269 q 831 239 858 239 q 812 240 825 239 q 790 241 798 241 q 774 239 782 241 q 813 178 779 206 q 882 138 847 149 q 920 96 917 126 q 879 68 917 75 q 773 61 841 61 q 724 62 757 61 q 681 64 692 64 q 613 56 621 64 l 614 -68 q 603 -73 608 -73 q 585 -65 597 -73 q 562 -57 573 -57 q 494 -46 524 -57 q 465 -30 486 -30 q 439 -35 454 -30 q 404 -47 424 -41 q 378 -57 383 -54 q 329 -68 345 -68 q 318 -65 323 -68 l 317 66 q 207 69 288 61 q 77 68 125 77 q 12 60 28 60 q -35 85 -18 60 q -53 129 -53 110 q -1 191 -53 159 q 92 246 69 240 q 121 258 115 252 q 134 273 128 265 q 150 298 139 281 q 100 309 117 298 q 58 345 82 320 q 71 377 58 350 q 146 441 106 410 q 197 484 185 472 q 250 548 210 496 q 182 548 237 551 q 166 581 166 567 q 174 608 166 589 q 222 655 182 624 q 280 705 261 686 q 299 749 299 724 q 296 762 299 751 q 237 789 237 765 q 245 814 237 800 q 295 878 267 852 q 345 924 323 903 q 389 990 367 944 q 421 1015 402 1015 q 465 990 443 1015 z "},"":{"ha":1270,"x_min":-32,"x_max":1300,"o":"m 1075 1042 q 1066 959 1058 974 q 1115 906 1075 945 q 1177 840 1156 868 q 1198 791 1198 811 q 1186 751 1198 777 q 1144 724 1161 724 q 1107 729 1132 724 q 1063 742 1082 734 q 1015 749 1044 749 q 1064 606 1047 677 q 1001 432 1076 498 q 1079 260 1053 301 q 1190 390 1144 322 l 1300 307 q 1133 114 1229 191 q 928 5 1047 37 q 680 -28 806 -28 q 456 -14 572 -28 q 247 54 353 5 q 79 163 165 86 q -32 313 -5 244 l 65 382 q 187 268 117 318 q 228 347 207 290 q 225 453 250 404 q 219 640 179 550 q 193 689 228 684 q 111 651 159 669 q 31 655 62 632 q 17 723 0 677 q 52 795 33 768 q 98 849 71 822 q 163 889 125 876 q 244 890 201 903 q 305 848 285 873 q 333 797 325 822 q 363 741 342 771 q 446 689 387 711 q 589 667 504 667 q 730 678 672 667 q 800 726 789 689 q 848 897 831 808 q 903 1013 876 990 q 963 1059 930 1036 q 1035 1093 996 1082 q 1075 1042 1075 1104 m 839 355 q 700 328 789 322 q 539 335 615 328 q 412 375 464 342 l 315 199 q 390 156 333 182 q 519 121 447 131 q 675 111 591 111 q 939 187 833 114 q 905 242 920 222 q 839 355 890 262 z "},"":{"ha":685,"x_min":-39,"x_max":747,"o":"m 696 1059 q 700 882 747 985 q 574 627 653 779 l 604 600 q 715 339 715 498 l 715 304 q 646 105 710 187 q 511 -2 582 22 q 376 -26 440 -26 l 329 -26 q 101 49 172 -21 q 4 191 29 119 q -21 330 -21 262 q 104 615 -21 504 l 132 632 q 7 852 53 771 q -24 1002 -39 933 q 126 1096 1 1112 q 235 976 218 1061 q 256 837 252 890 q 272 684 261 783 l 357 689 q 411 681 386 686 q 433 798 425 765 q 457 950 440 831 q 568 1096 473 1069 q 696 1059 659 1118 z "},"":{"ha":722,"x_min":-33,"x_max":757,"o":"m 339 1118 q 373 1123 361 1128 q 409 1080 385 1118 q 445 1044 433 1042 q 535 1028 493 1036 l 538 1028 q 599 1067 583 1061 q 643 1071 615 1074 q 661 1017 667 1064 q 623 895 649 939 q 583 825 597 851 q 619 711 583 765 q 663 629 654 657 q 672 549 672 600 l 667 510 q 694 456 667 486 q 739 381 721 427 q 746 293 757 336 q 618 114 746 208 q 530 -8 618 54 q 410 -57 467 -43 q 231 -51 328 -71 q 49 65 134 -32 q -8 325 -33 182 l 5 393 q 73 463 26 464 q 126 424 119 461 q 117 319 134 387 q 182 127 109 199 q 307 71 225 82 q 436 94 382 57 l 404 97 q 233 193 310 85 q 197 315 197 248 l 197 325 q 260 478 197 399 q 275 537 279 518 q 275 591 271 555 q 334 708 279 627 q 359 771 359 751 q 315 804 325 786 q 291 850 304 822 q 288 954 277 879 q 339 1118 288 1074 z "},"":{"ha":1301,"x_min":-34,"x_max":1352,"o":"m 601 1013 q 766 936 694 1013 q 751 768 831 825 l 699 882 l 810 893 l 916 893 q 1323 663 1266 893 q 1312 372 1352 534 q 1266 111 1269 220 q 1257 22 1257 46 l 1232 11 l 1070 11 q 1046 32 1046 11 l 1046 111 q 897 298 1027 298 l 853 298 q 677 54 677 298 l 677 0 l 490 0 q 446 310 460 0 l 430 301 q 185 196 344 199 q -23 450 -23 216 l -23 518 q 59 689 -34 692 q 115 655 102 686 q 134 507 128 624 q 197 429 156 401 q 270 518 245 464 q 248 652 250 572 q 293 845 242 779 q 424 914 344 911 q 601 1013 560 1013 z "},"":{"ha":924,"x_min":-79,"x_max":947,"o":"m 193 893 l 203 893 q 224 890 210 893 q 231 893 228 893 q 329 852 294 876 q 406 790 366 836 l 493 800 q 599 786 545 807 q 696 749 657 765 q 893 551 818 685 q 924 450 911 507 q 921 447 924 447 q 926 416 924 422 q 914 359 924 389 q 945 292 940 321 l 942 292 q 947 275 947 279 q 901 221 940 221 q 840 254 871 221 l 770 309 q 720 335 753 322 q 639 359 720 343 q 591 301 623 325 q 500 258 546 258 q 497 257 500 257 q 479 261 493 257 l 473 258 q 422 282 422 261 q 461 374 456 315 q 380 342 411 347 q 344 336 349 338 q 332 334 339 334 l 332 335 q 218 304 268 332 q 161 208 171 261 l 174 171 q 215 123 195 147 q 288 5 260 83 q 294 -18 288 1 q 292 -21 294 -21 l 294 -32 q 252 -61 294 -56 l 248 -61 q 175 -41 199 -47 q 86 21 139 -25 q 32 -32 60 -4 l 16 -49 q -35 -78 0 -78 q -69 -52 -61 -78 q -79 -16 -79 -37 l -79 -8 q -78 -5 -79 -5 l -79 -1 l -79 22 q -43 136 -74 87 q -12 191 -20 179 q -21 302 -24 256 q -18 334 -18 307 q 39 521 -8 433 q 115 631 58 567 q 196 710 143 656 l 196 715 q 134 843 196 751 q 126 864 126 851 q 193 893 136 893 z "},"":{"ha":947,"x_min":-33,"x_max":971,"o":"m 257 960 l 281 960 q 419 831 368 960 q 468 734 460 750 q 522 815 494 770 q 726 954 607 954 q 824 896 791 960 q 821 770 856 832 q 911 753 856 778 q 956 665 966 728 q 749 492 956 532 l 717 492 l 693 484 q 778 441 733 456 q 943 315 914 370 q 940 193 971 261 q 777 140 908 125 q 779 54 786 97 q 733 -2 772 11 q 650 -8 693 -16 q 558 40 607 -1 q 454 207 509 81 l 443 207 q 353 62 416 127 q 216 -12 293 -4 q 95 36 135 -12 q 100 161 54 83 q 31 171 60 158 q -13 207 3 184 q -28 267 -28 229 l -28 286 q 74 412 -28 371 q 179 463 150 443 l 201 467 q 31 551 102 497 q -33 679 -33 619 q 158 802 -12 828 q 227 954 153 922 l 257 960 z "},"":{"ha":907,"x_min":-71,"x_max":971,"o":"m 426 1069 l 480 1069 l 605 1053 q 796 956 719 1020 q 922 770 873 892 q 963 564 963 656 l 963 559 q 941 349 971 420 q 852 222 911 277 l 741 130 q 700 0 741 0 q 629 41 629 0 q 610 81 629 76 l 597 81 q 570 8 589 81 q 502 0 562 8 q 461 68 472 0 l 448 76 l 434 76 q 412 0 420 76 l 407 0 q 331 68 331 0 q 312 76 323 68 q 277 14 288 76 q 209 0 266 5 l 195 22 l 195 62 q 141 157 195 138 q -43 431 -14 269 l -57 564 q 60 909 -71 779 q 296 1047 136 982 q 426 1069 382 1069 m 488 632 l 488 600 q 665 442 488 467 q 827 600 827 477 l 827 613 q 700 784 827 735 l 637 784 q 488 632 488 746 m 146 613 l 146 605 q 241 505 174 505 l 282 505 q 380 627 363 505 q 263 730 380 705 q 146 613 146 713 z "},"":{"ha":956,"x_min":-68,"x_max":998,"o":"m 436 1074 l 574 1061 q 922 849 813 1015 q 859 770 941 768 q 637 822 775 836 l 615 822 q 425 711 496 814 l 387 648 q 371 570 371 597 l 371 564 q 439 335 360 410 q 604 260 517 260 q 677 252 642 252 l 705 252 q 903 326 794 252 q 989 288 998 393 q 726 52 908 157 q 531 0 593 0 l 436 0 q 134 109 238 24 q -25 326 29 193 q -68 548 -68 426 q 28 873 -63 754 q 254 1042 119 993 q 436 1074 344 1069 z "},"":{"ha":930,"x_min":-57,"x_max":982,"o":"m 461 1050 q 722 983 597 1050 q 914 791 846 917 q 982 524 982 665 q 914 258 982 382 q 722 65 846 133 q 461 -3 597 -3 q 202 65 328 -3 q 9 258 76 133 q -57 524 -57 382 q 9 791 -57 665 q 202 983 76 917 q 461 1050 328 1050 m 382 906 q 241 860 315 901 q 107 727 155 814 q 60 540 60 640 q 109 353 60 439 l 125 317 l 382 578 l 382 906 m 195 214 q 255 174 222 190 q 393 125 328 133 l 393 407 l 195 214 m 521 130 q 665 174 589 133 q 722 214 694 190 l 521 410 l 521 130 m 789 331 l 806 353 q 852 540 852 439 q 804 727 852 640 q 670 863 757 814 q 515 911 597 901 l 521 583 l 789 331 z "},"":{"ha":839,"x_min":-94,"x_max":937,"o":"m 856 760 q 926 662 905 722 q 937 602 937 624 q 899 494 937 537 q 802 423 861 445 q 742 412 774 412 q 704 415 688 412 q 774 336 720 418 q 812 228 812 288 q 726 65 812 136 q 623 33 682 33 q 460 119 536 33 q 425 157 427 157 q 378 114 422 157 q 221 33 319 33 q 107 71 156 33 q 31 206 37 119 q 69 336 26 277 q 96 412 129 418 q 42 423 69 412 q -56 494 -12 445 q -94 602 -94 543 q -83 662 -94 624 q -12 760 -61 716 q 96 798 37 798 q 156 787 129 798 q 235 751 248 754 q 232 857 221 749 q 297 982 237 928 q 422 1031 351 1031 q 568 960 509 1031 q 612 857 606 917 q 609 743 623 738 q 688 787 595 749 q 742 798 720 798 q 856 760 802 798 m 498 410 q 544 502 544 453 q 514 581 544 545 q 425 621 471 621 q 338 586 370 621 q 302 502 302 553 q 332 426 302 458 q 425 380 370 380 q 498 410 465 380 z "},"":{"ha":1006,"x_min":0,"x_max":1017,"o":"m 304 949 l 393 949 l 483 949 l 572 949 l 662 949 l 749 949 l 838 949 l 928 949 l 1017 949 l 1017 749 l 1017 548 l 1017 347 l 1017 146 q 993 69 1017 106 q 924 12 968 33 q 830 -8 879 -8 q 736 12 781 -8 q 667 69 692 33 q 643 146 643 106 q 667 224 643 187 q 731 278 692 260 q 822 296 770 296 q 887 279 854 293 q 911 266 898 274 l 911 358 l 911 448 l 911 540 l 911 629 l 789 629 l 665 629 l 543 629 l 418 629 l 418 510 l 418 388 l 418 269 l 418 146 q 372 69 418 106 q 281 12 326 33 q 187 -8 236 -8 q 91 12 136 -8 q 23 69 46 33 q 0 146 0 106 q 23 224 0 187 q 91 279 46 260 q 187 298 136 298 q 279 279 236 298 q 304 266 293 274 l 304 437 l 304 608 l 304 779 l 304 949 m 418 836 l 418 732 l 543 732 l 665 732 l 789 732 l 849 732 l 911 732 l 911 836 l 789 836 l 665 836 l 543 836 l 418 836 z "}," ":{"ha":326,"x_min":0,"x_max":0,"o":""}}}
